<?xml version="1.0" encoding="utf-8"?>
<!-- Generator: Adobe Illustrator 26.0.1, SVG Export Plug-In . SVG Version: 6.00 Build 0)  -->
<svg version="1.1" id="Capa_1" xmlns="http://www.w3.org/2000/svg" xmlns:xlink="http://www.w3.org/1999/xlink" x="0px" y="0px"
	 viewBox="0 0 21 21" style="enable-background:new 0 0 21 21;" xml:space="preserve">
<style type="text/css">
	.st0{fill:#FFFFFF;}
</style>
<g>
	<path class="st0" d="M17.8,3.7c-1.4-0.6-2.8-1.1-4.3-1.4c-0.2,0.3-0.4,0.8-0.6,1.2c-1.6-0.2-3.2-0.2-4.8,0C7.9,3.2,7.7,2.7,7.5,2.4
		C6,2.6,4.6,3.1,3.2,3.7c-2.7,4.1-3.5,8.2-3.1,12.2c1.8,1.4,3.6,2.2,5.3,2.7c0.4-0.6,0.8-1.2,1.1-1.9c-0.6-0.2-1.2-0.5-1.8-0.9
		c0.2-0.1,0.3-0.2,0.4-0.3c3.5,1.6,7.2,1.6,10.6,0c0.1,0.1,0.3,0.2,0.4,0.3c-0.6,0.3-1.2,0.6-1.8,0.9c0.3,0.7,0.7,1.3,1.1,1.9
		c1.7-0.5,3.5-1.4,5.3-2.7C21.3,11.3,20.2,7.3,17.8,3.7z M7,13.5c-1,0-1.9-1-1.9-2.1S6,9.2,7,9.2c1.1,0,1.9,1,1.9,2.1
		C8.9,12.5,8.1,13.5,7,13.5z M14,13.5c-1,0-1.9-1-1.9-2.1s0.8-2.1,1.9-2.1c1.1,0,1.9,1,1.9,2.1C15.9,12.5,15,13.5,14,13.5z"/>
</g>
</svg>
