<?xml version="1.0" encoding="utf-8"?>
<!-- Generator: Adobe Illustrator 26.0.1, SVG Export Plug-In . SVG Version: 6.00 Build 0)  -->
<svg version="1.1" id="Capa_1" xmlns="http://www.w3.org/2000/svg" xmlns:xlink="http://www.w3.org/1999/xlink" x="0px" y="0px"
	 viewBox="0 0 129 43" style="enable-background:new 0 0 129 43;" xml:space="preserve">
<style type="text/css">
	.st0{fill:#FFFFFF;}
	.st1{fill:#E17726;stroke:#E17726;stroke-width:0.25;stroke-linecap:round;stroke-linejoin:round;}
	.st2{fill:#E27625;stroke:#E27625;stroke-width:0.25;stroke-linecap:round;stroke-linejoin:round;}
	.st3{fill:#D5BFB2;stroke:#D5BFB2;stroke-width:0.25;stroke-linecap:round;stroke-linejoin:round;}
	.st4{fill:#233447;stroke:#233447;stroke-width:0.25;stroke-linecap:round;stroke-linejoin:round;}
	.st5{fill:#CC6228;stroke:#CC6228;stroke-width:0.25;stroke-linecap:round;stroke-linejoin:round;}
	.st6{fill:#E27525;stroke:#E27525;stroke-width:0.25;stroke-linecap:round;stroke-linejoin:round;}
	.st7{fill:#F5841F;stroke:#F5841F;stroke-width:0.25;stroke-linecap:round;stroke-linejoin:round;}
	.st8{fill:#C0AC9D;stroke:#C0AC9D;stroke-width:0.25;stroke-linecap:round;stroke-linejoin:round;}
	.st9{fill:#161616;stroke:#161616;stroke-width:0.25;stroke-linecap:round;stroke-linejoin:round;}
	.st10{fill:#763E1A;stroke:#763E1A;stroke-width:0.25;stroke-linecap:round;stroke-linejoin:round;}
</style>
<path d="M8.3,42c-0.3,0-0.7,0-1,0c-0.7,0-1.4-0.1-2-0.2c-0.6-0.1-1.2-0.3-1.8-0.6S2.4,40.5,2,40.1c-0.5-0.4-0.8-1-1.1-1.5
	c-0.3-0.6-0.5-1.2-0.6-1.8C0.1,36.1,0,35.4,0,34.7c0-0.2,0-1,0-1V8.3c0,0,0-0.8,0-1c0-0.7,0.1-1.3,0.2-2S0.5,4,0.8,3.5
	C1.1,2.9,1.5,2.4,1.9,2c0.4-0.5,1-0.8,1.5-1.1C4,0.5,4.6,0.3,5.2,0.2C5.9,0.1,6.6,0,7.3,0h1h112.3h1c0.7,0,1.4,0.1,2,0.2
	s1.2,0.3,1.8,0.6c1.1,0.6,2.1,1.5,2.6,2.7c0.3,0.6,0.5,1.2,0.6,1.8c0.1,0.7,0.2,1.4,0.2,2.1c0,0.3,0,0.6,0,1s0,0.8,0,1.2v23
	c0,0.4,0,0.8,0,1.2s0,0.7,0,1c0,0.7-0.1,1.4-0.2,2c-0.1,0.6-0.3,1.3-0.6,1.8c-0.3,0.6-0.7,1.1-1.1,1.5c-0.4,0.5-1,0.8-1.5,1.1
	c-0.6,0.3-1.2,0.5-1.8,0.6c-0.7,0.1-1.4,0.2-2,0.2c-0.3,0-0.7,0-1,0h-1.2L8.3,42z"/>
<path class="st0" d="M107.8,21.9c-0.6-0.4-1.3-0.7-1.9-1c-0.4-0.2-0.8-0.4-1.2-0.8c-0.6-0.5-0.5-1.5,0.1-1.9c0.9-0.6,2.4-0.3,2.6,1
	c0,0,0,0.1,0.1,0.1h1.4c0.1,0,0.1,0,0.1-0.1c-0.1-0.8-0.4-1.6-1-2c-0.5-0.4-1.2-0.7-1.9-0.7c-3.6,0-4,3.8-2,5
	c0.2,0.1,2.1,1.1,2.8,1.5c0.7,0.4,0.9,1.2,0.6,1.8c-0.3,0.5-1,1-1.6,0.9c-0.8-0.1-1.4-0.5-1.6-1.1c-0.1-0.1-0.1-0.3-0.1-0.4
	c0,0,0-0.1-0.1-0.1h-1.5c0,0-0.1,0-0.1,0.1c0,1.1,0.3,1.6,1,2.2c0.7,0.5,1.4,0.8,2.2,0.8c2.1,0,3.1-1.2,3.3-2.3
	C109.2,23.8,108.8,22.6,107.8,21.9z"/>
<path class="st0" d="M43.1,16.7h-0.7h-0.8c0,0-0.1,0-0.1,0.1l-1.2,4c0,0.1-0.1,0.1-0.1,0l-1.2-4c0,0,0-0.1-0.1-0.1h-0.8h-0.7h-0.7
	c0,0-0.1,0-0.1,0.1v10.3c0,0,0,0.1,0.1,0.1h1.5c0,0,0.1,0,0.1-0.1v-7.9c0-0.1,0.1-0.1,0.1,0l1.2,4.1l0.1,0.3c0,0,0,0.1,0.1,0.1H41
	c0,0,0.1,0,0.1-0.1l0.1-0.3l1.2-4.1c0-0.1,0.1-0.1,0.1,0V27c0,0,0,0.1,0.1,0.1h1.5c0,0,0.1,0,0.1-0.1V16.7c0,0,0-0.1-0.1-0.1
	L43.1,16.7L43.1,16.7z"/>
<path class="st0" d="M85,16.7C84.9,16.7,84.9,16.7,85,16.7l-1.3,4.1c0,0.1-0.1,0.1-0.1,0l-1.2-4.1c0,0,0-0.1-0.1-0.1h-2.2
	c0,0-0.1,0-0.1,0.1V27c0,0,0,0.1,0.1,0.1h1.5c0,0,0.1,0,0.1-0.1v-7.8c0-0.1,0.1-0.1,0.1,0l1.2,4.1l0.1,0.3c0,0,0,0.1,0.1,0.1h1.2
	c0,0,0.1,0,0.1-0.1l0.1-0.3l1.2-4.1c0-0.1,0.1-0.1,0.1,0V27c0,0,0,0.1,0.1,0.1h1.5c0,0,0.1,0,0.1-0.1V16.7c0,0,0-0.1-0.1-0.1
	L85,16.7L85,16.7z"/>
<path class="st0" d="M65.7,16.7H63h-1.5h-2.7c0,0-0.1,0-0.1,0.1v1.3c0,0,0,0.1,0.1,0.1h2.7v8.9c0,0,0,0.1,0.1,0.1h1.5
	c0,0,0.1,0,0.1-0.1v-8.9h2.7c0,0,0.1,0,0.1-0.1L65.7,16.7C65.8,16.7,65.7,16.7,65.7,16.7z"/>
<path class="st0" d="M74.5,27.1h1.4C76,27.1,76,27,76,27l-2.8-10.3c0,0,0-0.1-0.1-0.1h-0.5h-0.9h-0.5c0,0-0.1,0-0.1,0.1L68.2,27
	c0,0.1,0,0.1,0.1,0.1h1.4c0,0,0.1,0,0.1-0.1l0.8-3c0,0,0-0.1,0.1-0.1h3c0,0,0.1,0,0.1,0.1L74.5,27.1L74.5,27.1z M71,22.5l1.1-4
	c0-0.1,0.1-0.1,0.1,0l1.1,4c0,0.1,0,0.1-0.1,0.1L71,22.5C71,22.6,71,22.5,71,22.5z"/>
<path class="st0" d="M97.6,27.1H99c0.1,0,0.1-0.1,0.1-0.1l-2.9-10.3c0,0,0-0.1-0.1-0.1h-0.5h-0.9h-0.5c0,0-0.1,0-0.1,0.1L91.3,27
	c0,0.1,0,0.1,0.1,0.1h1.4c0,0,0.1,0,0.1-0.1l0.8-3c0,0,0-0.1,0.1-0.1h3c0,0,0.1,0,0.1,0.1L97.6,27.1L97.6,27.1z M94.1,22.5l1.1-4
	c0-0.1,0.1-0.1,0.1,0l1.1,4c0,0.1,0,0.1-0.1,0.1L94.1,22.5C94.1,22.6,94.1,22.5,94.1,22.5z"/>
<path class="st0" d="M50,25.6v-3.2c0,0,0-0.1,0.1-0.1h4c0,0,0.1,0,0.1-0.1v-1.3c0,0,0-0.1-0.1-0.1h-4c0,0-0.1,0-0.1-0.1V18
	c0,0,0-0.1,0.1-0.1h4.5c0,0,0.1,0,0.1-0.1v-1c0,0,0-0.1-0.1-0.1H50h-1.5c0,0-0.1,0-0.1,0.1v1.3v2.8v1.4v3.3V27c0,0,0,0.1,0.1,0.1H50
	h4.7c0,0,0.1,0,0.1-0.1v-1.4c0,0,0-0.1-0.1-0.1L50,25.6C50.1,25.6,50,25.6,50,25.6z"/>
<path class="st0" d="M121.4,27l-5.2-5.3v-0.1l4.7-4.8c0.1-0.1,0-0.1-0.1-0.1h-1.9c0,0,0,0-0.1,0l-3.9,4.1c-0.1,0.1-0.1,0-0.1-0.1v-4
	c0,0,0-0.1-0.1-0.1h-1.5c0,0-0.1,0-0.1,0.1V27c0,0,0,0.1,0.1,0.1h1.5c0,0,0.1,0,0.1-0.1v-4.5c0-0.1,0.1-0.1,0.1-0.1l4.5,4.6
	c0,0,0,0,0.1,0H121.4C121.4,27.1,121.5,27,121.4,27z"/>
<path class="st1" d="M30,11.1l-9.1,6.7l1.6-3.9L30,11.1z"/>
<path class="st2" d="M9.2,11.1l8.9,6.7l-1.6-4L9.2,11.1z"/>
<path class="st2" d="M26.7,26.7l-2.4,3.6l5.2,1.4l1.4-5H26.7z"/>
<path class="st2" d="M8.2,26.7l1.4,5l5.2-1.4l-2.4-3.6H8.2z"/>
<path class="st2" d="M14.5,20.4l-1.4,2.1l5.1,0.3l-0.1-5.5L14.5,20.4z"/>
<path class="st2" d="M24.6,20.4L21,17.2l-0.1,5.6l5.1-0.2L24.6,20.4z"/>
<path class="st2" d="M14.8,30.3l3.1-1.5l-2.7-2.1L14.8,30.3z"/>
<path class="st2" d="M21.2,28.8l3.1,1.5l-0.4-3.6L21.2,28.8z"/>
<path class="st3" d="M24.3,30.3l-3.1-1.5l0.3,2v0.8L24.3,30.3z"/>
<path class="st3" d="M14.8,30.3l2.9,1.4v-0.8l0.3-2L14.8,30.3z"/>
<path class="st4" d="M17.7,25.4l-2.5-0.8l1.8-0.8L17.7,25.4z"/>
<path class="st4" d="M21.4,25.4l0.8-1.6l1.8,0.8L21.4,25.4z"/>
<path class="st5" d="M14.8,30.3l0.4-3.6l-2.8,0.1L14.8,30.3z"/>
<path class="st5" d="M23.9,26.7l0.4,3.6l2.4-3.6H23.9z"/>
<path class="st5" d="M26.1,22.6L21,22.8l0.5,2.6l0.8-1.6l1.8,0.8L26.1,22.6z"/>
<path class="st5" d="M15.1,24.7l1.8-0.8l0.8,1.6l0.5-2.7l-5.1-0.2L15.1,24.7z"/>
<path class="st6" d="M13.1,22.6l2.1,4.2l-0.1-2.1L13.1,22.6z"/>
<path class="st6" d="M24,24.7l-0.1,2.1l2.1-4.2L24,24.7z"/>
<path class="st6" d="M18.2,22.8l-0.5,2.6l0.6,3.1l0.1-4.1L18.2,22.8z"/>
<path class="st6" d="M20.9,22.8l-0.3,1.6l0.1,4.1l0.6-3.1L20.9,22.8z"/>
<path class="st7" d="M21.4,25.4l-0.6,3.1l0.4,0.3l2.7-2.1l0.1-2.1L21.4,25.4z"/>
<path class="st7" d="M15.1,24.7l0.1,2.1l2.7,2.1l0.4-0.3l-0.6-3.1L15.1,24.7z"/>
<path class="st8" d="M21.4,31.7v-0.8l-0.2-0.3h-3.4l-0.2,0.2v0.8l-2.8-1.4l1,0.8l2,1.4h3.5l2.1-1.4l1-0.8L21.4,31.7z"/>
<path class="st9" d="M21.2,28.8l-0.4-0.3h-2.5l-0.4,0.3l-0.3,2l0.2-0.2h3.4l0.2,0.2L21.2,28.8z"/>
<path class="st10" d="M30.3,18.3l0.8-3.7l-1.2-3.4l-8.7,6.4l3.4,2.8l4.7,1.4l1-1.2l-0.5-0.3l0.8-0.7l-0.5-0.4l0.8-0.5L30.3,18.3z"/>
<path class="st10" d="M8,14.6l0.8,3.7l-0.5,0.3l0.8,0.5l-0.5,0.4l0.8,0.7l-0.5,0.3l1,1.2l4.7-1.4l3.4-2.8l-8.8-6.4L8,14.6z"/>
<path class="st7" d="M29.3,21.8l-4.7-1.4l1.4,2.1l-2.1,4.2l2.8-0.1h4.2L29.3,21.8z"/>
<path class="st7" d="M14.5,20.4l-4.7,1.4l-1.6,4.9h4.2l2.8,0.1l-2.1-4.2L14.5,20.4z"/>
<path class="st7" d="M20.9,22.8l0.3-5.2l1.4-3.7h-6.1l1.4,3.7l0.3,5.2l0.1,1.6v4.1h2.5v-4.1L20.9,22.8z"/>
</svg>
