<?xml version="1.0" encoding="utf-8"?>
<!-- Generator: Adobe Illustrator 26.0.1, SVG Export Plug-In . SVG Version: 6.00 Build 0)  -->
<svg version="1.1" id="Capa_1" xmlns="http://www.w3.org/2000/svg" xmlns:xlink="http://www.w3.org/1999/xlink" x="0px" y="0px"
	 viewBox="0 0 33 32" style="enable-background:new 0 0 33 32;" xml:space="preserve">
<style type="text/css">
	.st0{fill:#00F6FF;}
	.st1{fill:#4B4D4F;}
</style>
<g>
	<polygon class="st0" points="0.2,10.7 1.6,12.5 15.9,30.1 10,10.7 	"/>
	<path class="st1" d="M27.4,1.3L27.4,1.3L27.4,1.3z"/>
	<polygon class="st0" points="17,30 31.2,12.5 32.6,10.7 23.4,10.7 	"/>
	<path class="st1" d="M32.9,10.3L32.9,10.3L32.9,10.3z"/>
	<polygon class="st0" points="27.1,1.3 16.8,1.3 23.1,9.7 	"/>
	<polygon class="st0" points="5.2,1.6 0.1,10 9.7,10 	"/>
	<polygon class="st0" points="32.7,10 27.6,1.6 23.7,10 	"/>
	<path class="st1" d="M32.9,10.3L32.9,10.3L32.9,10.3z"/>
	<polygon class="st0" points="16,1.3 5.8,1.3 10.2,9.7 	"/>
	<polygon class="st0" points="16.4,1.8 10.8,10 22.5,10 	"/>
	<polygon class="st0" points="16.4,30.7 22.7,10.7 10.6,10.7 	"/>
</g>
</svg>
