<?xml version="1.0" encoding="utf-8"?>
<!-- Generator: Adobe Illustrator 26.0.1, SVG Export Plug-In . SVG Version: 6.00 Build 0)  -->
<svg version="1.1" id="Capa_1" xmlns="http://www.w3.org/2000/svg" xmlns:xlink="http://www.w3.org/1999/xlink" x="0px" y="0px"
	 viewBox="0 0 129 43" style="enable-background:new 0 0 129 43;" xml:space="preserve">
<style type="text/css">
	.st0{clip-path:url(#SVGID_00000104673633570814175640000017505523837698506683_);}
	.st1{fill:#FFFFFF;}
	.st2{fill:#8247E5;}
</style>
<path d="M8.3,42c-0.3,0-0.7,0-1,0c-0.7,0-1.4-0.1-2-0.2c-0.6-0.1-1.2-0.3-1.8-0.6S2.4,40.5,2,40.1c-0.5-0.4-0.8-1-1.1-1.5
	c-0.3-0.6-0.5-1.2-0.6-1.8C0.1,36.1,0,35.4,0,34.7c0-0.2,0-1,0-1V8.3c0,0,0-0.8,0-1c0-0.7,0.1-1.3,0.2-2S0.5,4,0.8,3.5
	C1.1,2.9,1.5,2.4,1.9,2c0.4-0.5,1-0.8,1.5-1.1C4,0.5,4.6,0.3,5.2,0.2C5.9,0.1,6.6,0,7.3,0h1h112.3h1c0.7,0,1.4,0.1,2,0.2
	s1.2,0.3,1.8,0.6c1.1,0.6,2.1,1.5,2.6,2.7c0.3,0.6,0.5,1.2,0.6,1.8c0.1,0.7,0.2,1.4,0.2,2.1c0,0.3,0,0.6,0,1s0,0.8,0,1.2v23
	c0,0.4,0,0.8,0,1.2s0,0.7,0,1c0,0.7-0.1,1.4-0.2,2c-0.1,0.6-0.3,1.3-0.6,1.8c-0.3,0.6-0.7,1.1-1.1,1.5c-0.4,0.5-1,0.8-1.5,1.1
	c-0.6,0.3-1.2,0.5-1.8,0.6c-0.7,0.1-1.4,0.2-2,0.2c-0.3,0-0.7,0-1,0h-1.2L8.3,42z"/>
<g>
	<defs>
		<rect id="SVGID_1_" x="8.1" y="9.1" width="112.6" height="24.7"/>
	</defs>
	<clipPath id="SVGID_00000078730894890657633280000010378797329272420268_">
		<use xlink:href="#SVGID_1_"  style="overflow:visible;"/>
	</clipPath>
	<g style="clip-path:url(#SVGID_00000078730894890657633280000010378797329272420268_);">
		<path class="st1" d="M52.2,17c0.7,0.4,1.3,1,1.6,1.8c0.4,0.9,0.7,1.8,0.6,2.8c0,1-0.2,1.9-0.7,2.7c-0.4,0.8-1.1,1.4-1.9,1.7
			c-0.9,0.4-1.8,0.6-2.8,0.6c-0.6,0-1.1-0.1-1.6-0.3c-0.5-0.2-1-0.4-1.4-0.8v5.4H43V16.6h2.7l0.3,1.1c1.2-0.9,2.4-1.4,3.8-1.4
			C50.6,16.3,51.4,16.5,52.2,17z M50.5,23.5c0.5-0.5,0.8-1.2,0.8-1.9c0-0.7-0.3-1.4-0.7-1.9c-0.5-0.5-1.1-0.7-1.8-0.7
			c-0.5,0-1.1,0.1-1.5,0.4c-0.4,0.2-0.8,0.6-1,1v2.3c0.2,0.4,0.5,0.8,0.8,1.1c0.4,0.3,1,0.4,1.5,0.4C49.2,24.2,49.9,24,50.5,23.5z"
			/>
		<path class="st1" d="M56.2,18.8c0.5-0.8,1.2-1.4,2-1.8c0.9-0.4,1.9-0.7,2.9-0.7c1,0,2,0.2,2.9,0.7c0.8,0.4,1.5,1.1,1.9,1.8
			c0.9,1.6,0.9,3.6,0,5.2c-0.5,0.8-1.1,1.4-1.9,1.8c-0.9,0.5-1.9,0.7-2.9,0.7c-1,0-2-0.2-2.9-0.6c-0.8-0.4-1.5-1-2-1.8
			c-0.5-0.8-0.7-1.8-0.7-2.7C55.6,20.6,55.8,19.7,56.2,18.8z M59.4,23.4c0.4,0.5,1,0.7,1.7,0.7c0.6,0,1.3-0.3,1.7-0.7
			c0.4-0.5,0.6-1.1,0.6-1.9c0-0.8-0.2-1.4-0.6-1.9c-0.4-0.5-1.1-0.8-1.8-0.8c-0.6,0-1.3,0.3-1.7,0.7c-0.4,0.5-0.7,1.2-0.6,1.9
			C58.7,22.2,58.9,22.9,59.4,23.4z"/>
		<path class="st1" d="M71.5,9.2v17.2h-3.1V9.2H71.5z"/>
		<path class="st1" d="M84.2,16.9l-6.3,14.1h-3l2.3-5.1l-4.5-9h3.5l2.5,5.6l2.6-5.6L84.2,16.9z"/>
		<path class="st1" d="M96,16.9v9.5c0,0.9-0.3,1.7-0.8,2.4c-0.5,0.8-1.3,1.3-2.1,1.7c-0.9,0.4-1.9,0.6-2.9,0.6
			c-0.7,0-1.4-0.1-2.1-0.3c-0.5-0.2-1-0.4-1.4-0.6c-0.5-0.3-0.9-0.6-1.3-1l1.8-2.1c0.4,0.4,0.8,0.7,1.3,0.9c0.5,0.2,1.1,0.4,1.6,0.4
			c0.7,0,1.4-0.2,2-0.6c0.5-0.4,0.8-1,0.8-1.6v-1.4c-0.3,0.5-0.8,0.9-1.4,1.2c-0.7,0.3-1.5,0.5-2.2,0.5c-0.9,0-1.7-0.2-2.4-0.7
			c-0.8-0.4-1.4-1.1-1.8-1.8c-0.4-0.8-0.7-1.7-0.7-2.6c0-0.9,0.2-1.8,0.7-2.6c0.5-0.8,1.1-1.4,1.9-1.9c0.7-0.5,1.5-0.7,2.4-0.7
			c0.7,0,1.4,0.1,2.1,0.3c0.5,0.2,1,0.5,1.4,0.9l0.3-0.7L96,16.9z M92.9,22.7v-2.3c-0.2-0.5-0.6-0.8-1-1.1c-0.5-0.3-1.1-0.4-1.6-0.4
			c-0.7,0-1.4,0.3-1.9,0.7c-0.5,0.5-0.8,1.2-0.8,1.9c0,1.5,1.2,2.7,2.7,2.7c0,0,0,0,0,0C91.4,24.1,92.3,23.6,92.9,22.7L92.9,22.7z"
			/>
		<path class="st1" d="M98.5,18.8c0.5-0.8,1.2-1.4,2-1.8c0.9-0.4,1.9-0.7,2.9-0.7c1,0,2,0.2,2.9,0.7c0.8,0.4,1.5,1.1,1.9,1.8
			c0.5,0.8,0.7,1.7,0.7,2.6c0,0.9-0.2,1.8-0.7,2.6c-0.4,0.8-1.1,1.4-1.9,1.8c-0.9,0.5-1.9,0.7-2.9,0.7c-1,0-2-0.2-2.9-0.6
			c-0.8-0.4-1.5-1-2-1.8c-0.5-0.8-0.7-1.7-0.7-2.8C97.8,20.5,98.1,19.6,98.5,18.8z M101.6,23.4c0.4,0.5,1,0.7,1.7,0.7
			c0.6,0,1.3-0.2,1.7-0.7c0.4-0.5,0.6-1.1,0.6-1.9c0-0.8-0.2-1.4-0.6-1.9c-0.4-0.5-1.1-0.7-1.7-0.7c-0.6,0-1.3,0.3-1.7,0.7
			c-0.5,0.5-0.7,1.1-0.7,1.9C101,22.2,101.2,22.8,101.6,23.4z"/>
		<path class="st1" d="M119.7,17.2c0.6,0.5,0.9,1.2,1,2v7.2h-3.1v-6c-0.1-0.9-0.5-1.4-1.4-1.4c-0.7,0-1.3,0.3-1.7,1
			s-0.6,1.5-0.6,2.5v3.9h-3.1v-9.5h2.8l0.2,1.5c0.4-0.6,0.9-1.1,1.5-1.5c0.6-0.4,1.4-0.5,2.2-0.5C118.4,16.4,119.2,16.6,119.7,17.2z
			"/>
		<path class="st2" d="M29.8,16.7c-0.6-0.3-1.2-0.3-1.8,0l-4.1,2.4l-2.8,1.6l-4.2,2.4c-0.6,0.3-1.2,0.3-1.8,0l-3.3-1.9
			c-0.5-0.3-0.9-0.9-0.9-1.5V16c0-0.6,0.3-1.2,0.9-1.5l3.2-1.8c0.6-0.3,1.2-0.3,1.8,0l3.2,1.8c0.5,0.3,0.9,0.9,0.9,1.5v2.4l2.8-1.6
			v-2.4c0-0.6-0.3-1.2-0.9-1.5l-6-3.5c-0.6-0.3-1.2-0.3-1.8,0L9,12.8c-0.6,0.3-0.9,0.9-0.9,1.5v6.9c0,0.6,0.3,1.2,0.9,1.5l6.1,3.4
			c0.6,0.3,1.2,0.3,1.8,0l4.2-2.4l2.8-1.6l4.1-2.3c0.6-0.3,1.2-0.3,1.8,0l3.2,1.8c0.5,0.3,0.9,0.9,0.9,1.5V27c0,0.6-0.3,1.2-0.9,1.5
			l-3.2,1.9c-0.6,0.3-1.2,0.3-1.8,0l-3.2-1.8c-0.5-0.3-0.9-0.9-0.9-1.5v-2.4l-2.8,1.6v2.4c0,0.6,0.3,1.2,0.9,1.5l6.1,3.5
			c0.6,0.3,1.2,0.3,1.8,0l6.1-3.4c0.5-0.3,0.9-0.9,0.9-1.5v-6.9c0-0.6-0.3-1.2-0.9-1.5L29.8,16.7z"/>
	</g>
</g>
</svg>
