<?xml version="1.0" encoding="utf-8"?>
<!-- Generator: Adobe Illustrator 26.0.1, SVG Export Plug-In . SVG Version: 6.00 Build 0)  -->
<svg version="1.1" id="Capa_1" xmlns="http://www.w3.org/2000/svg" xmlns:xlink="http://www.w3.org/1999/xlink" x="0px" y="0px"
	 viewBox="0 0 33 32" style="enable-background:new 0 0 33 32;" xml:space="preserve">
<style type="text/css">
	.st0{fill:#00F6FF;}
</style>
<g>
	<path class="st0" d="M28.4,12.3C28.4,12.3,28.4,12.3,28.4,12.3C28.4,12.3,28.4,12.2,28.4,12.3C28.4,12.2,28.3,12.2,28.4,12.3
		c-0.1-0.1-0.1-0.1-0.1,0c0,0,0,0,0,0.1C28.3,12.4,28.3,12.4,28.4,12.3C28.3,12.3,28.3,12.3,28.4,12.3
		C28.4,12.3,28.4,12.3,28.4,12.3z"/>
	<path class="st0" d="M28,13.8C28,13.8,28,13.8,28,13.8C28,13.9,28,13.8,28,13.8C28,13.9,28,13.9,28,13.8
		C28.1,13.9,28.1,13.9,28,13.8C28.1,13.9,28.1,13.8,28,13.8C28.1,13.8,28,13.8,28,13.8z"/>
	<path class="st0" d="M28.2,13.7C28.2,13.7,28.2,13.7,28.2,13.7c0,0.1,0,0.1,0,0.1C28.3,13.8,28.3,13.7,28.2,13.7
		C28.3,13.7,28.2,13.7,28.2,13.7z"/>
	<path class="st0" d="M28,13.5C28,13.5,28,13.6,28,13.5c0,0.1,0,0.1,0,0.1c0,0,0.1,0,0.1-0.1C28.1,13.5,28.1,13.5,28,13.5
		C28.1,13.5,28,13.5,28,13.5z"/>
	<path class="st0" d="M5.5,5.8c0,0,0.1,0,0.1,0C5.7,5.8,5.6,5.9,5.5,5.8C5.6,6,5.6,6,5.6,6c0,0,0.1,0.1,0.1,0.2c0,0,0.1,0,0.1,0
		c0.1,0,0.1,0.1,0.1,0.1c0,0,0,0,0,0.1c0,0.1,0,0.1,0,0C6,6.3,6,6.3,6,6.3s0,0,0,0.1C6,6.5,6,6.5,6,6.5c0,0,0,0.1,0,0.1
		c0,0,0,0.1,0,0.1c0,0,0.1,0,0.1-0.1c0-0.1,0.1-0.1,0.1-0.1c0,0,0-0.1,0-0.1c0,0,0-0.1-0.1-0.1c0,0-0.1-0.1-0.1-0.1c0,0,0-0.1,0-0.1
		C6,6.1,6,6,6,6c0,0,0-0.1,0-0.1c0,0-0.1,0-0.1-0.1c0,0,0.1-0.1,0-0.1c0,0-0.1,0-0.1-0.1c0,0-0.1,0,0-0.1c0.1,0,0.1,0,0.1-0.1
		C6,5.4,6,5.4,6,5.4c0,0-0.1,0-0.1,0c0,0,0-0.1,0-0.1S5.8,5.6,5.8,5.6c0,0-0.1,0-0.1,0c0,0-0.1,0.1-0.1,0.1C5.5,5.7,5.5,5.7,5.5,5.8
		C5.5,5.8,5.5,5.9,5.5,5.8z"/>
	<path class="st0" d="M7.3,7.9C7.4,7.9,7.3,7.9,7.3,7.9c0.1-0.1,0.1-0.1,0.2-0.1s0,0,0,0.1c0,0,0,0,0.1,0c0,0,0.1,0,0.1,0
		c0,0,0,0,0.1,0c0.1,0,0,0,0.1,0c0.1,0,0.1,0,0.1-0.1C8,7.8,8,7.8,8.1,7.8c0.1,0,0.1-0.1,0.1-0.1l0.1,0.1c-0.1,0-0.1,0.1-0.2,0.1
		c-0.1,0,0,0,0.1,0c0,0,0.1,0,0.1,0C8.4,7.9,8.4,8,8.5,8c0,0,0.1,0,0.1,0c0,0,0.1,0,0.1,0c0,0,0.1,0,0.1-0.1c0.1,0,0.1,0,0.1,0
		c0.1,0,0.1,0,0.1,0c0,0,0,0,0,0.1c0,0,0,0,0.1,0c0,0,0.1,0,0.1,0.1c0,0,0.1,0.1,0,0.1c0,0,0,0,0,0c0,0,0,0-0.1,0
		c-0.1,0-0.1,0-0.1,0C9,8.1,9,8.1,9,8.1c0,0,0,0-0.1,0c0,0,0,0-0.1,0c-0.1,0-0.1,0-0.1,0c0,0,0,0.1-0.1,0.1c-0.1,0,0,0-0.1,0
		c-0.1,0-0.1,0-0.1,0c0,0,0,0-0.1,0.1c0,0.1,0,0,0,0.1c0,0.1,0,0.1-0.1,0.1c0,0.1,0,0.1,0,0.1c0,0,0,0,0.1-0.1
		c0.1-0.1,0.1-0.2,0.2-0.2c0,0,0,0,0,0.1c0,0,0,0.1,0,0.1c0,0,0,0.1-0.1,0.1c0,0.1-0.1,0.1-0.1,0.1c0,0,0,0-0.1,0.1
		c0,0.1,0,0.2,0,0.2c0,0,0,0-0.1,0.1c0,0.1,0,0.1,0,0.2c0,0,0,0.2,0,0.2c0,0,0.2,0.1,0.2,0.1c0,0,0.1,0,0.1-0.1c0.1,0,0-0.1,0-0.1
		c0,0,0.1-0.1,0.1-0.1c0-0.1,0-0.1,0-0.2C8.7,9,8.6,9,8.6,9c0,0,0,0,0-0.1c0,0,0-0.1,0-0.1c0,0,0-0.1,0-0.1c0,0,0-0.1,0-0.1
		c0,0,0-0.1,0.1-0.1c0,0,0,0,0.1-0.1c0,0,0,0,0.1,0c0,0.1,0,0,0.1-0.1c0-0.1,0,0,0-0.1c0-0.1,0,0,0.1-0.1c0.1-0.1,0.1,0,0.1,0
		s0,0,0.1,0c0,0,0.1,0,0.1,0c0,0,0.1,0.1,0.2,0.1c0,0,0.1,0.1,0,0.1c0,0,0,0.2,0,0.3c0,0.1,0,0.1,0,0.1c0,0,0,0-0.1,0
		c-0.1,0-0.1,0-0.1,0c0,0,0,0.1,0.1,0.1c0,0,0.1,0,0.1-0.1c0.1,0,0-0.1,0.1-0.1c0.1,0,0,0,0,0c0,0,0,0,0.1,0.1c0,0,0,0.1,0,0.1
		c0,0,0,0.1,0,0.1c0,0,0,0.1,0,0.1c0,0,0,0-0.1,0c0,0-0.1,0.2-0.2,0.2c-0.1,0.1,0,0-0.1,0.1c0,0,0,0,0,0c0,0,0.1,0,0.1,0
		c0,0,0.1,0,0.1,0c0,0,0.1,0,0.2,0c0.1,0,0.2,0,0.3-0.1c0,0,0,0,0.1-0.1c0.1,0,0.1,0,0.1,0s0.1,0,0.1,0c0,0,0.1,0,0.1,0
		c0,0,0.1-0.1,0.1-0.1s0.1,0,0.1-0.1c0,0,0.1-0.1,0.1-0.1c0,0,0-0.1,0-0.1c0,0,0.1,0,0.2,0c0,0,0.1,0,0.1,0c0,0,0,0,0.2,0
		c0.1,0,0.1,0,0.1-0.1c0,0,0,0,0.1,0c0,0,0,0,0.1,0c0,0,0,0,0-0.1c0-0.1,0-0.1,0-0.1c0-0.1,0,0,0.1-0.1c0.1,0,0.2-0.2,0.3-0.2
		c0,0,0,0,0,0c0,0-0.1,0.1-0.1,0.1c0,0-0.1,0-0.1,0.1c-0.1,0-0.1,0.1-0.1,0.1c0,0-0.1,0.1-0.1,0.1c0,0,0,0-0.1,0c0,0-0.1,0-0.1,0
		c-0.1,0,0,0,0,0c0,0,0,0-0.1,0c0,0-0.2,0.1-0.2,0.1c0,0-0.1,0-0.1,0c0,0-0.1,0-0.1,0c0,0,0,0,0,0.1c0,0.1,0,0.1-0.1,0.1
		c-0.1,0-0.1,0-0.1,0c0,0,0,0.1,0,0c0,0,0,0,0.1,0c0.1,0,0,0.1,0,0.1s0,0-0.1,0c0,0-0.1,0-0.1,0s-0.1,0-0.1,0c0,0-0.1,0-0.1,0
		c0,0,0,0,0,0c0,0,0,0-0.1,0.1c0,0-0.1,0-0.1,0c0,0-0.1,0-0.1,0c0,0-0.1,0-0.1,0c0,0,0,0.1,0,0.1s-0.1,0-0.1,0c0,0-0.1,0-0.1,0.1
		c0,0-0.1,0-0.1,0c0,0-0.1,0-0.1,0c0,0,0,0,0-0.1c0,0,0.1,0,0.1,0c0,0,0,0,0-0.1c0,0,0.1-0.1,0.1-0.1S9.8,9.1,9.9,9
		c0,0,0-0.1,0.1-0.1c0,0,0-0.1,0-0.1c0-0.1,0-0.1,0-0.1c0,0,0,0,0.1,0c0,0,0.1,0,0.1-0.1c0,0,0-0.1,0-0.1c0,0,0-0.1-0.1-0.1
		c0,0,0-0.1,0-0.1c0,0,0,0,0.1,0c0,0,0.1,0.1,0.1,0.1c0,0,0.1,0,0.1,0.1c0,0,0.1,0,0.1,0c0.1,0,0-0.1,0.1-0.1c0,0,0,0,0-0.1
		c0,0-0.1-0.1-0.1-0.1c0,0-0.1,0-0.1,0c0,0,0-0.1-0.1-0.1c0,0-0.1,0-0.1,0c0,0-0.1,0-0.1,0c0,0,0,0-0.1,0c0,0-0.1,0-0.1,0
		c0,0-0.1,0-0.2,0c0,0-0.3,0-0.3,0s-0.1,0-0.1,0c0,0,0,0,0-0.1c0,0-0.1-0.1-0.1-0.1c0,0,0,0,0-0.1c0,0,0.1,0,0.1-0.1
		c0,0-0.1-0.1-0.1-0.1c0,0,0-0.1,0-0.1c0,0,0-0.1,0-0.1c0,0-0.1,0-0.1,0c0,0,0,0.1-0.1,0.1c0,0-0.1,0-0.1,0c0,0,0-0.1,0-0.1
		c0,0-0.1-0.1-0.1-0.1c0,0,0-0.1,0-0.1c0,0-0.1-0.1-0.1-0.1s-0.1,0-0.1,0c0,0-0.1,0-0.1,0c0,0,0,0-0.1-0.1c0,0-0.1,0-0.1,0
		c0,0-0.1,0.1-0.1,0.1c0,0-0.1,0.1-0.1,0.1c0,0,0-0.1-0.1-0.1C8,7.3,8,7.4,8,7.4c0,0-0.2,0.1-0.2,0.1c-0.1,0-0.1,0-0.2,0.1
		c-0.1,0-0.2,0.1-0.2,0.1c0,0-0.2,0.1-0.2,0.1c0,0,0,0,0,0c0,0,0,0,0,0C7.2,8,7.3,8,7.3,7.9z"/>
	<path class="st0" d="M29.2,13.6C29.1,13.6,29.1,13.6,29.2,13.6C29.1,13.6,29.1,13.6,29.2,13.6c-0.1,0.1-0.1,0.1-0.1,0.1s0,0,0,0.1
		c0,0,0,0,0,0.1c0,0,0,0,0,0c0,0,0,0,0.1,0c0,0,0.1,0,0.1,0C29.2,13.7,29.3,13.7,29.2,13.6C29.3,13.6,29.3,13.6,29.2,13.6
		C29.2,13.6,29.2,13.5,29.2,13.6z"/>
	<path class="st0" d="M16.5,0c-8.8,0-16,7.2-16,16s7.2,16,16,16s16-7.2,16-16S25.3,0,16.5,0z M23.9,9.9c0-0.1,0.1,0,0.1-0.1
		c0-0.1,0.1-0.4,0.1-0.4c0,0,0-0.1,0-0.1c0,0,0-0.1,0-0.1c0,0,0,0,0-0.1c0,0,0-0.1,0-0.1c0,0,0,0,0,0c0,0,0-0.1,0-0.1c0,0,0,0,0-0.1
		c0-0.1,0-0.1,0-0.1c0,0,0,0,0-0.1c0,0,0-0.1,0.1-0.1c0,0,0.1,0,0.1,0c0,0,0.1,0,0.1,0c0,0,0-0.1,0.1-0.1c0,0,0-0.1,0.1,0
		c0,0,0.1,0,0.1,0c0,0,0,0,0.1,0c0,0,0,0,0.1,0c0.1,0,0.1,0,0.1,0c0,0,0.2,0,0.2,0c0,0,0.1,0,0.1,0c0,0,0.1,0,0.1,0c0,0,0.1,0,0.1,0
		s0,0,0.1,0c0,0,0.1,0,0.1,0s0,0,0.1,0c0.1,0,0.1,0,0.1,0c0.1,0,0.1,0,0.1,0c0,0,0,0,0.1,0c0,0,0.1,0,0.1,0c0,0,0,0,0.1,0
		c0.1,0,0,0,0.1,0c0,0,0,0,0,0c0.1-0.1,0.1,0,0.1-0.1c0,0,0.1-0.3,0.1-0.3c0,0,0-0.2,0-0.2c0,0,0-0.1,0-0.1c0,0,0-0.1,0-0.1
		c0,0,0-0.1,0-0.1c0,0,0-0.1,0-0.1c-0.1,0-0.1-0.1-0.1-0.1c0,0,0,0-0.1-0.1c0,0-0.1-0.1-0.1-0.1c0,0,0,0,0-0.1c0,0,0-0.1,0-0.1
		c0,0,0-0.1,0-0.1c0,0,0,0-0.1,0c0,0,0,0-0.1,0c-0.1,0-0.1,0-0.1,0c0,0-0.1-0.1-0.1-0.1c0,0,0,0-0.1,0c-0.1,0-0.1,0-0.1,0
		c0,0-0.1,0,0-0.1c0,0-0.1-0.1,0-0.1c0,0,0.1-0.1,0.1-0.1c0,0,0,0,0.1,0c0.1,0,0.1,0,0.1,0c0,0,0,0,0.1,0c0,0,0,0,0.1,0
		c0,0,0.1,0,0.1,0c0,0,0,0,0.1,0c0.1,0,0.1,0,0.1,0c0,0,0.1,0,0.1,0c0,0,0.1,0.1,0.1,0c0-0.1,0-0.1,0-0.1c0,0,0-0.1-0.1-0.1
		c0,0,0-0.1,0-0.1c0,0,0-0.1,0-0.1c0,0,0.1,0,0.2,0c0,0,0.1,0,0.1,0.1c0,0,0.1,0,0.1,0c0,0,0.2,0,0.2,0c0,0,0.1,0,0.1,0
		c0,0,0-0.1,0-0.1c0,0,0-0.1,0-0.1s0.1,0,0.1,0c0,0,0.1,0,0.1,0c0,0,0.1-0.1,0.1-0.1s0-0.1,0-0.1c0,0,0-0.1,0-0.1
		c0,0,0.1-0.1,0.1-0.1c0,0,0,0,0.1,0c0,0,0,0,0,0c0,0,0.1,0,0.1,0c0,0,0.1,0,0.1-0.1c1,1.1,1.9,2.2,2.5,3.5c0,0-0.1,0-0.1,0
		s0-0.1,0-0.1c0,0-0.1-0.1-0.2-0.1c0,0-0.1-0.1-0.1-0.1c0,0,0,0-0.1,0c-0.1,0-0.1-0.1-0.1-0.1c0,0-0.1-0.1-0.1-0.1c0,0,0-0.1,0-0.1
		c0,0,0-0.1,0-0.1c0,0-0.1,0-0.1,0c0,0-0.1,0-0.1,0c0,0,0-0.1-0.1,0c0,0,0,0-0.1,0c0,0-0.1,0-0.1,0c0,0-0.1,0.1-0.1,0.1c0,0,0,0,0,0
		c0,0,0-0.1-0.1,0c0,0,0,0,0,0c-0.1,0.1-0.1,0.1-0.1,0.1c0,0,0,0-0.1,0c-0.1,0.1-0.2,0.2-0.2,0.2c0,0-0.2,0-0.2,0c0,0-0.1,0-0.1,0
		c0,0,0-0.1-0.1-0.1c-0.1,0-0.1,0-0.2,0c0,0-0.1,0-0.1,0c0,0-0.1,0-0.2,0.1c0,0-0.1,0.1-0.1,0.1c0,0,0,0,0,0.1c0,0,0,0.1,0,0.1
		c0,0,0,0.1,0,0.1c0,0,0,0,0,0.1c0,0,0,0.1-0.1,0.1c0,0,0-0.1-0.1,0c-0.1,0.1-0.1,0.1-0.1,0.1s-0.1,0-0.1,0c0,0-0.1,0-0.1,0
		c0,0-0.1,0.1-0.1,0.1s-0.1,0-0.1,0c0,0-0.1,0.1-0.1,0.1c0,0-0.1,0.1,0,0.1c0,0-0.1,0.2-0.1,0.2c0,0,0,0,0,0.1c0,0,0,0,0,0.1
		c0,0.1,0,0.1,0,0.1c0,0,0.1,0,0.1,0.1c0,0,0,0.1,0,0.1c0,0-0.1,0-0.1,0.1c0,0,0,0-0.1,0c0,0,0,0.1-0.1,0.1c0,0-0.1,0-0.1,0.1
		c0,0,0,0,0,0c0,0-0.1,0.1-0.1,0.1s-0.1,0-0.1,0.1c0,0-0.1,0.1-0.1,0.1c0,0,0,0-0.1,0c0,0,0,0-0.1,0c0,0-0.1,0-0.1,0
		c0,0-0.1,0-0.1,0s0,0-0.1,0c0,0-0.1,0-0.1,0c0,0-0.1,0-0.1,0c0,0-0.1,0-0.1,0c0,0-0.2,0.1-0.2,0.1c0,0,0,0-0.1,0.1
		c0,0-0.1,0.1-0.1,0.1c0,0-0.1,0-0.1-0.1c0,0-0.1-0.1-0.1-0.1c0,0,0-0.1,0-0.1c0,0-0.1,0-0.1,0c0,0,0,0-0.1,0c0,0,0,0-0.1,0
		c0,0,0,0,0,0c0,0,0,0-0.1,0c0,0-0.1,0-0.1,0s-0.1,0-0.1,0c0,0-0.1,0-0.1,0c0,0-0.1,0-0.1,0s0,0,0,0c0,0,0-0.1,0-0.1
		c0,0,0-0.1,0-0.1c0,0,0-0.1,0-0.1s0-0.1,0-0.1c-0.1,0-0.1,0-0.1,0c0,0,0-0.1,0-0.1C23.9,10,23.9,10,23.9,9.9
		C23.9,9.9,23.8,9.9,23.9,9.9z M17.6,6C17.5,6.1,17.5,6,17.6,6c-0.1,0.1,0,0.1-0.1,0.1c0,0.1-0.1,0.1-0.2,0.2
		c-0.1,0-0.1,0.1-0.1,0.1c0,0,0,0.1,0,0.1c0,0,0,0,0,0.1c0,0.1,0,0.1,0,0.1s0-0.1,0.1-0.1c0.1-0.1,0-0.1,0.1-0.1c0,0,0,0,0.1,0
		c0,0,0.1,0,0.1,0c0,0,0,0,0,0.1c-0.1,0,0,0-0.1,0c0,0,0,0,0,0.1c0,0,0,0,0.1,0c0,0,0.1,0,0.1,0c0,0.1,0,0.1,0,0.1s0,0,0.1,0
		c0,0,0-0.1,0.1-0.1c0,0,0.1-0.1,0.1-0.1s0.1-0.1,0.1,0c0,0.1,0.1,0.1,0.1,0.1c0,0,0,0,0.1,0c0,0,0.1,0,0.1,0.1c0,0,0,0,0,0.1
		c0,0,0,0-0.1,0C17.9,7,18,7,18,7c0,0,0.1,0,0,0c-0.1,0.1,0,0,0,0s0.1,0,0.1,0c0,0,0.1-0.1,0.1-0.1c0,0,0.1-0.1,0.1,0
		c0,0,0,0-0.1,0.1c-0.1,0.1-0.1,0-0.1,0.1c-0.1,0.1-0.1,0.1-0.1,0.1c0,0,0,0.1,0.1,0c0,0,0-0.1,0.1-0.1c0,0,0.1,0,0.1,0
		c0,0.1,0,0.1,0,0.1c0,0,0,0,0,0c0,0,0.1,0,0.1,0c0,0,0,0.1,0,0.1c0,0,0,0,0,0.1c0,0,0,0.1,0,0.1c0,0,0,0,0,0.1
		C18.1,7.7,18,7.7,18,7.7c0,0,0-0.1-0.1-0.1c0,0-0.1,0-0.1,0.1c0-0.1,0-0.1,0-0.1c0,0,0,0,0,0c-0.1,0-0.1,0-0.1,0c0,0,0,0.1-0.1,0.1
		c0,0-0.1,0-0.1,0.1c0,0,0,0.1-0.1,0.1c0,0-0.1,0-0.1,0c0,0-0.1,0-0.1,0c0,0,0,0,0.1-0.1c0,0,0.1,0,0.1,0c0,0,0-0.1,0-0.1
		c0,0,0,0,0,0c0,0,0-0.1,0-0.1c0,0,0,0-0.1,0c-0.1,0-0.1,0-0.1,0c0,0,0,0-0.1,0c-0.1,0,0,0-0.1,0c-0.1,0-0.2,0-0.2,0
		c0,0-0.1,0-0.2,0c-0.1,0-0.1,0-0.1,0s0-0.1,0-0.1c0,0,0-0.1,0.1-0.1c0,0,0.1,0,0.1,0s0.1-0.1,0-0.1c0,0-0.1,0-0.1,0s0,0,0.1-0.1
		c0,0,0.1,0,0.1-0.1c0,0,0,0,0-0.1c0,0,0-0.1,0-0.1c0,0,0-0.1,0.1-0.1c0,0,0.1,0,0.1-0.1c0,0,0-0.1,0-0.1c0,0,0,0,0-0.1
		C17,6.5,17,6.4,17,6.4c0,0,0.1-0.1,0.1-0.1c0,0,0.1-0.1,0.1-0.1c0,0,0-0.1,0.1-0.2c0.1,0,0,0,0.1-0.1C17.5,6,17.4,6,17.6,6
		C17.6,6,17.6,5.9,17.6,6C17.6,6,17.6,6,17.6,6z M13.5,1c0.7-0.1,1.4-0.2,2.1-0.2c0,0,0,0,0.1,0c0,0,0,0.1,0,0.1c0,0,0,0.1,0,0.1
		c0,0,0,0,0,0c0,0,0,0,0,0c0,0,0,0,0.1,0c0,0,0,0,0,0.1c0,0,0,0,0,0c0,0,0,0,0,0c0,0,0,0.1,0,0c0,0,0,0.1,0,0.1s0,0.1,0,0.1
		c0,0,0,0,0,0c0,0,0,0-0.1,0c0,0,0,0,0,0c0,0,0,0.1,0,0.1s0,0.1,0,0.1c0,0,0,0,0,0c0,0,0,0,0,0c0,0,0,0,0,0c0,0,0,0,0,0s0,0,0,0
		c0,0,0,0,0,0s0,0.1,0,0.1c0,0,0,0,0-0.1c0,0,0,0,0,0c0,0,0,0,0,0c0,0,0,0,0,0c0,0,0,0,0,0c0,0,0,0,0,0s0,0,0-0.1c0-0.1,0,0-0.1,0
		c-0.1,0,0,0-0.1,0c0,0-0.1,0-0.1-0.1c0,0-0.1,0-0.1,0s-0.1,0-0.1,0c0,0-0.1-0.1-0.1-0.1c0,0,0,0,0,0c0,0-0.1,0-0.1,0c0,0,0,0-0.1,0
		c0,0,0,0,0,0c0,0-0.1,0-0.1,0s0,0,0,0c0,0,0,0,0,0c0,0,0,0,0,0.1c0,0,0,0,0,0c0,0,0,0,0,0.1c0,0,0,0,0.2,0.1c0.1,0,0,0,0.1,0.1
		c0,0,0,0,0,0.1c0,0,0.1,0.1,0.2,0.1c0.1,0,0,0,0,0c0,0,0,0.1,0,0.1c0,0,0,0,0,0c0,0,0,0,0,0c0,0,0,0,0,0c0,0,0,0,0,0
		c0,0-0.1,0-0.1,0S15,1.9,15,1.9c0,0,0,0-0.1,0c0,0,0,0,0,0c0,0-0.1,0-0.1,0c0,0,0,0,0,0c0,0,0,0-0.1,0c0,0-0.1,0-0.1,0
		c0,0-0.1,0-0.1,0c0,0,0,0-0.1-0.1c0,0,0,0,0,0c0,0,0,0,0,0c0,0,0,0,0,0c0,0,0,0-0.1-0.1c0-0.1,0,0-0.1,0c0,0,0,0,0,0s0,0,0,0
		c0,0,0,0,0,0c0,0-0.1,0-0.1,0c0,0,0,0,0,0c0,0,0,0,0,0c0,0,0,0,0,0c0,0,0,0,0-0.1c0,0,0,0,0,0c0,0,0,0-0.1,0c0,0,0,0-0.1,0
		c0,0,0,0-0.1-0.1c0,0,0,0,0-0.1c0,0,0,0,0.1,0c0,0,0,0,0.1,0c0,0,0,0,0,0c0,0,0,0-0.1,0c0,0-0.1,0-0.1,0c0,0-0.1,0-0.1,0
		c0,0-0.1,0-0.1,0c0,0,0,0,0,0c0,0,0,0,0-0.1c0,0-0.1,0-0.1,0c0,0,0,0,0,0c0,0,0.1,0,0.1,0c0,0,0,0-0.1,0C13.6,1.1,13.6,1.1,13.5,1
		C13.5,1,13.5,1,13.5,1z M12.5,1.3C12.5,1.3,12.5,1.4,12.5,1.3c0.1,0.1,0.1,0.1,0,0.1C12.5,1.5,12.3,1.4,12.5,1.3
		C12.4,1.4,12.4,1.4,12.5,1.3z M12.1,1.5c0,0,0.1,0,0.1,0c0,0,0,0,0.1,0c0,0,0,0,0,0.1c0,0.1,0,0-0.1,0C12.2,1.6,12.2,1.6,12.1,1.5
		C12,1.6,12,1.5,12.1,1.5z M11.4,2.1c0-0.1,0-0.1,0.1-0.1c0.1,0,0.1-0.1,0.2,0c0,0,0,0.1-0.1,0.1c0,0.1-0.1,0.1-0.1,0.2
		c-0.1,0.1,0,0-0.1,0C11.4,2.2,11.4,2.2,11.4,2.1z M10.5,2c0-0.1,0.1-0.1,0.1-0.1c0,0,0,0,0,0c0,0,0.1,0,0.1,0c0,0,0.1,0,0.2-0.1
		c0.1,0,0,0,0.1,0.1c0.1,0.1-0.1,0-0.1,0.1C10.9,2,10.8,2,10.7,2C10.6,2.1,10.7,2.1,10.5,2C10.5,2,10.5,2,10.5,2z M1.9,15.1
		C1.9,15.1,1.8,15.1,1.9,15.1c-0.1,0-0.1,0-0.1-0.1c0-0.1,0,0,0,0c0,0,0,0,0,0c0,0,0,0-0.1,0c0,0-0.1,0-0.1,0c0,0,0,0,0-0.1
		c0,0-0.1-0.1-0.1-0.1c0,0,0,0-0.1-0.1c0,0,0,0-0.1,0c0,0,0,0,0,0c0,0.5-0.1,0.9-0.1,1.4c0,0.8,0.1,1.6,0.2,2.4
		c-0.1-0.8-0.2-1.6-0.2-2.4c0-0.5,0-0.9,0.1-1.4c0,0,0,0,0,0c0,0,0,0,0,0c0-0.2,0-0.4,0.1-0.6l0,0c0-0.1,0-0.2,0-0.3
		c0,0.1,0,0.2,0,0.3l0,0c0,0,0,0,0.1,0.1c0,0,0,0,0,0.1c0,0,0,0,0,0s0.1,0.1,0.1,0.1c0,0,0,0-0.1,0c-0.1,0,0,0,0,0c0,0,0,0,0.1,0
		c0,0,0,0,0,0s0,0,0,0c0,0,0,0,0,0c0,0,0,0,0,0.1c0,0,0,0,0,0c0,0,0,0,0,0.1c0,0,0,0,0,0c0,0,0.1,0,0.1,0c0,0,0.1,0,0.1,0
		c0,0,0.1,0,0.1,0c0,0,0,0,0,0c0,0,0,0,0,0c0,0,0,0,0,0c0,0,0,0,0,0.1c0,0,0,0,0,0C1.9,15,1.9,15,1.9,15.1C2,15,1.9,15.1,1.9,15.1z
		 M8.1,21.7c0,0-0.1,0-0.1,0c0,0-0.1,0-0.1-0.1c0-0.1,0,0,0,0c0,0,0-0.1,0-0.1c0,0,0,0-0.1,0c0,0,0-0.1,0.1-0.1c0,0,0,0,0,0
		c0,0,0.1,0,0.1,0.1c0,0,0,0,0,0.1C8.1,21.6,8.1,21.6,8.1,21.7C8.1,21.7,8.1,21.7,8.1,21.7z M8.3,21.7C8.3,21.7,8.2,21.7,8.3,21.7
		C8.2,21.7,8.2,21.6,8.3,21.7c-0.1-0.1-0.1-0.1-0.1-0.1C8.2,21.6,8.3,21.6,8.3,21.7C8.3,21.7,8.3,21.7,8.3,21.7z M8.5,21.7
		C8.4,21.7,8.4,21.7,8.5,21.7C8.5,21.7,8.5,21.7,8.5,21.7C8.5,21.7,8.5,21.7,8.5,21.7z M18.3,21.8C18.3,21.9,18.3,21.9,18.3,21.8
		c0,0.1,0,0.1-0.1,0.1c0,0,0,0,0,0.1c0,0,0,0-0.1,0c0,0-0.1,0.1-0.1,0.2c0,0,0,0,0,0c0,0,0,0,0,0.1c0,0,0,0,0,0s0,0,0,0
		c0,0,0,0,0,0.1c0,0,0,0-0.1,0.1c0,0,0,0,0,0c0,0,0,0-0.1,0c0,0,0,0,0,0s0,0,0.1,0c0,0,0,0,0,0c0,0,0,0,0,0c0,0,0,0,0,0.1
		c0,0,0,0,0,0c0,0,0,0,0,0.1c0,0,0,0.1,0,0.1c0,0,0,0.1,0,0.1c0,0,0,0.1,0,0.1c0,0,0,0,0,0.1c0,0,0,0,0,0.1c0,0,0,0.1,0,0.1
		c0,0,0,0.1,0,0.1c0,0,0,0,0,0c0,0,0,0,0,0c0,0,0,0,0,0c0,0,0,0,0,0.1c0,0.1,0,0,0,0c0,0,0,0,0,0.1c0,0.1,0,0.1,0,0.1
		c0,0,0,0-0.1,0.1c0,0,0,0.1,0,0.1c0,0,0,0-0.1,0.1c-0.1,0.1,0,0-0.1,0c0,0,0,0,0,0.1c0,0,0,0,0,0c0,0,0,0,0,0c0,0,0,0,0,0
		c0,0,0,0-0.1,0c0,0,0,0,0,0c0,0,0,0,0,0c0,0-0.1,0-0.1,0c0,0,0,0,0,0c0,0,0,0,0,0c0,0,0,0-0.1,0c0,0,0,0-0.1,0c0,0,0,0,0,0
		s0,0-0.1,0c0,0,0,0,0,0c0,0,0,0,0,0c0,0,0,0-0.1,0c0,0,0,0,0,0c0,0,0,0,0,0.1c0,0-0.1,0-0.1,0.1c0,0,0,0,0,0c0,0,0,0,0,0
		c0,0,0,0,0,0c0,0-0.1,0-0.1,0c0,0,0,0,0,0.1c0,0,0,0,0,0c0,0,0,0,0,0.1c0,0,0,0,0,0c0,0,0,0.1,0,0.1s0,0.1,0,0.1c0,0,0,0.1,0,0.1
		c0,0,0,0.1,0,0.1c0,0,0,0,0,0c0,0-0.1,0.1-0.1,0.1c-0.1,0,0,0.1-0.1,0.1c0,0,0,0,0,0.1c0,0.1,0,0,0,0c0,0,0,0,0,0.1
		c0,0,0,0.1,0,0.1c0,0,0,0,0,0c0,0,0,0-0.1,0c0,0,0,0,0,0s0,0-0.1,0c0,0,0,0,0,0c0,0,0,0,0,0c0,0,0,0,0,0.1c0,0,0,0.1,0,0.1s0,0,0,0
		c0,0,0,0,0,0.1c0,0,0,0,0,0c0,0,0,0.1,0,0.1c0,0,0,0,0,0c0,0,0,0,0,0s-0.1,0-0.1,0c0,0,0,0-0.1,0c0,0,0,0,0,0c0,0,0,0-0.1,0
		c0,0,0,0-0.1,0c0,0-0.1,0-0.1,0c0,0-0.1,0-0.1-0.1c0,0,0,0-0.1,0c0,0,0,0,0,0c0,0-0.1,0-0.1-0.1c0,0,0,0,0-0.1c0,0,0-0.1,0-0.1
		c0,0,0,0,0-0.1c0,0,0-0.1,0-0.1c0,0,0,0,0,0.1c0,0,0,0,0,0.1c0,0,0,0,0,0c0,0,0,0,0,0c0,0,0,0,0,0.1c0,0.1,0,0,0,0c0,0,0,0,0,0.1
		c0,0,0,0,0,0c0,0,0.1,0.1,0.1,0.1c0,0,0,0,0,0.1c0,0,0,0,0,0.1c0,0,0,0,0,0.1c0,0,0,0,0,0c0,0,0,0,0.1,0c0,0,0,0,0,0.1
		c0,0,0,0,0,0.1c0,0.1,0,0,0,0c0,0,0,0,0,0c0,0,0,0,0,0s0,0,0,0.1c0,0,0,0,0,0c0,0,0,0,0,0c0,0,0,0,0,0c0,0,0,0,0,0c0,0,0,0,0,0
		s0,0-0.1,0c0,0-0.2,0-0.2,0c-0.1,0-0.1,0-0.1,0s0,0-0.1,0c0,0,0,0,0,0c0,0,0,0-0.1,0c0,0,0,0,0.1,0.1c0,0,0,0,0,0.1c0,0,0,0,0,0.1
		c0,0,0,0,0,0c0,0,0,0,0.1,0.1c0.1,0,0,0,0,0c0,0,0,0,0,0c0,0,0,0-0.1,0c0,0,0,0-0.1,0c0,0-0.1,0-0.1-0.1c0,0,0,0-0.1,0
		c-0.1,0,0,0-0.1,0c0,0,0,0,0,0.1c0,0,0,0,0,0.1c0,0,0,0,0,0.1c0,0,0,0,0,0.1c0,0,0,0,0.1,0c0,0,0,0,0-0.1c0,0,0,0,0.1,0
		c0,0,0,0,0,0.1c0,0.1,0,0,0,0c0,0,0,0-0.1-0.1c0,0,0,0,0,0c0,0,0,0,0,0c0,0,0.1,0.1,0.1,0.1s0,0-0.1,0c0,0,0,0.1,0,0.1c0,0,0,0,0,0
		c0,0,0,0,0,0c0,0,0,0.1,0,0.1c0,0.1,0,0-0.1,0c0,0,0,0-0.1,0.1c0,0,0,0,0,0s0,0,0,0c0,0,0,0,0,0c0,0,0,0.1,0,0.1c0,0,0,0,0,0.1
		c0,0,0,0,0.1,0.1c0,0,0.1,0,0.1,0c0,0,0.1,0,0.1,0c0,0,0,0,0.1,0c0,0,0,0,0,0.1c0,0,0,0,0,0c0,0,0,0,0,0.1c0,0,0,0,0,0
		c0,0,0,0,0,0.1c0,0,0,0-0.1,0.1c0,0-0.1,0-0.1,0.1c0,0,0,0-0.1,0c0,0,0,0.1,0,0.1c0,0,0,0.1,0,0.1c0,0,0,0-0.1,0c0,0,0,0-0.1,0.1
		c0,0,0,0.1,0,0.1c0,0,0,0,0,0.1c0,0,0,0.1,0,0.1c0,0,0,0.1,0.1,0.1c0,0,0.1,0.1,0.1,0.1c0,0,0,0,0,0c0,0,0,0-0.1,0c0,0-0.1,0-0.1,0
		c0,0,0,0,0,0c0,0,0,0,0,0c0,0,0,0,0.1,0c0,0,0.1,0,0.1,0.1c0,0,0,0,0,0c0,0,0,0,0.1,0c0,0,0,0,0,0.1c0,0,0,0,0,0
		c0,0,0.1,0.1,0.1,0.1c0,0,0,0,0.1,0c0,0,0,0,0,0.1c0,0,0,0,0,0c0,0,0.1,0.1,0.1,0.1s0,0,0.1,0c0,0,0.1,0,0.1,0c0,0,0,0,0,0
		c0,0,0,0,0,0c0,0,0,0-0.1,0c0,0-0.1,0-0.1,0c0,0,0,0,0,0s0,0-0.1,0c0,0,0,0,0,0c0,0,0,0-0.1,0c0,0-0.1,0-0.1,0c0,0,0,0-0.1,0
		c0,0,0,0,0,0c-0.1,0,0,0,0,0c0,0,0,0-0.1,0c0,0,0,0,0,0s0,0-0.1,0c0,0-0.1,0-0.1,0c0,0-0.1,0-0.1,0c0,0,0,0,0,0c0,0,0,0,0,0
		c0,0,0.1,0,0.1,0s0,0,0.1,0c0,0,0,0,0,0c0,0-0.1,0-0.1-0.1c0,0,0,0,0-0.1c0,0,0,0,0,0s0,0,0,0c0,0,0,0,0,0c0,0-0.1,0-0.1,0
		c0,0,0-0.1,0.1-0.1c0.1,0,0,0,0,0s0,0,0,0c0,0,0,0-0.1,0c0,0,0,0,0,0c0,0,0,0,0,0c0,0,0,0,0,0c0,0,0,0,0,0.1c0,0,0,0,0,0.1
		c0,0,0,0.1,0,0c0,0-0.1,0-0.1,0c0,0,0,0,0-0.1c0,0,0,0,0,0c0,0,0,0,0,0c0,0,0.1,0,0.1,0c0,0,0,0,0-0.1c0,0,0,0,0-0.1c0,0,0,0-0.1,0
		c0,0,0,0-0.1,0c0,0-0.1,0.1-0.1,0c0-0.1,0,0,0,0c0,0,0,0,0,0c0,0,0,0,0,0c0,0,0-0.1,0-0.1c0,0,0,0,0,0c0,0,0,0,0,0c0,0,0,0,0,0
		c0,0,0,0,0,0.1c0,0,0,0,0,0c0,0,0,0,0,0c0,0,0,0,0-0.1c0,0,0,0-0.1-0.1c0,0,0,0,0,0c0,0-0.1,0-0.1,0c0,0,0,0,0,0c0,0,0,0,0.1,0
		c0,0,0,0,0,0c0,0-0.1,0-0.1-0.1c0,0,0,0,0-0.1c0,0,0,0,0,0c0,0,0,0,0,0s0-0.1,0-0.1c0,0-0.1-0.1-0.1-0.1c0,0-0.1,0-0.1,0
		c0,0,0,0,0-0.1c0,0,0,0,0-0.1c0,0,0,0,0,0s0,0,0.1,0c0,0,0,0-0.1-0.1c0,0,0,0,0,0c0,0,0,0,0,0c0,0,0,0-0.1,0c0,0,0,0,0-0.1
		c0,0,0.1,0,0,0c0,0,0,0,0,0c0,0,0,0,0,0c0,0,0,0-0.1,0c0,0,0,0,0,0c0,0,0,0,0,0s0,0,0,0.1c0,0-0.1,0-0.1-0.1c0,0,0,0,0.1,0
		c0,0,0,0,0,0c0,0,0,0,0,0c0,0,0,0,0-0.1c0,0,0.1,0,0.1,0c0,0,0,0,0.1,0c0,0,0,0,0,0.1c0,0,0,0,0,0s0,0,0-0.1c0,0,0,0,0-0.1
		c0,0,0,0,0-0.1c0,0,0,0,0,0c0,0,0,0,0.1,0c0,0,0-0.1-0.1-0.1c0,0,0,0,0-0.1c0,0,0,0,0,0c0,0,0,0,0-0.1c0,0,0,0,0,0c0,0,0,0,0,0
		c0,0,0,0,0-0.1c0,0,0,0,0-0.1c0-0.1,0,0,0,0c0,0,0,0,0,0c0,0,0,0,0-0.1c0,0,0,0,0,0c0,0,0,0,0,0c0,0,0,0,0,0c0,0,0,0,0-0.1
		c0,0,0,0,0,0c0,0,0,0,0,0c0,0,0,0,0,0c0,0,0,0-0.1,0c0,0,0,0,0,0c0,0,0,0,0,0c0,0,0,0,0-0.1c0,0,0,0,0,0c0,0,0,0,0-0.1
		c0,0,0-0.1,0-0.1s0,0,0,0c0,0,0,0,0,0c0,0,0,0,0,0c0,0,0,0,0,0s0-0.1,0-0.1c0,0,0,0-0.1-0.1c0,0,0,0,0-0.1c0-0.1,0,0,0-0.1
		c0-0.1,0-0.1,0-0.1c0,0,0,0,0-0.1c0,0,0,0,0,0c0,0,0,0,0-0.1c0,0,0-0.1,0-0.1c0,0,0-0.1,0-0.1c0,0,0,0,0-0.1c0,0,0,0,0-0.1
		c0,0,0,0,0-0.1c0,0,0,0,0-0.1c0,0,0,0,0,0c0,0,0,0,0-0.1c0,0,0,0,0-0.1c0,0,0,0,0-0.1c0,0,0,0,0-0.1c0,0,0-0.1,0-0.1
		c0,0,0-0.1,0-0.2c0,0,0,0,0-0.1c0,0,0,0,0-0.1c0,0,0,0,0-0.1c0,0,0,0,0-0.1c0,0,0,0,0,0c0,0,0,0,0,0c0,0,0,0,0-0.1c0-0.1,0,0,0-0.1
		c0-0.1,0,0,0,0c0,0,0,0,0-0.1c0,0,0,0,0,0c0,0,0,0,0-0.1c0,0,0,0,0-0.1c0,0,0,0,0-0.1c0,0,0-0.2,0-0.3c0,0,0,0,0-0.1c0,0,0,0,0-0.1
		c0-0.1,0,0,0-0.1c0,0,0,0,0-0.1c0,0,0,0,0-0.1c0,0,0,0,0-0.1c0-0.1,0,0,0,0c0,0,0,0,0,0c0,0,0,0,0-0.1c0,0,0,0,0,0c0,0,0,0,0-0.1
		c0,0,0-0.1,0-0.1c0,0,0-0.1,0-0.1c0,0,0,0,0,0c0,0,0,0,0,0c-0.1-0.1,0,0-0.1,0c0,0,0,0-0.1-0.1c0,0,0,0-0.1-0.1c0,0-0.1,0-0.1,0
		c0,0,0,0,0,0c0,0,0,0,0,0c0,0,0,0-0.1,0c0,0,0,0-0.1,0c0,0,0,0-0.1,0c0,0-0.1-0.1-0.1-0.1c0,0,0,0-0.1,0c0,0,0,0,0,0c0,0,0,0,0,0
		c0,0,0,0-0.1,0c0,0,0,0,0,0c0,0,0-0.1,0-0.1c0,0-0.1,0-0.1-0.1c0,0,0,0,0,0c0,0,0,0,0,0c0,0,0,0,0,0c0,0,0,0,0,0c0,0,0,0,0-0.1
		c0,0,0,0-0.1,0c0,0,0,0,0-0.1c0,0,0,0,0,0c0,0,0,0,0,0c0,0,0,0,0-0.1c0,0,0,0,0,0c0,0-0.1-0.1-0.1-0.1c0,0,0,0,0,0
		c0,0,0-0.1-0.1-0.1c0,0,0,0,0-0.1c0,0,0,0,0-0.1c0,0,0,0,0,0c0,0,0,0,0,0c0,0,0,0,0,0c0,0,0,0,0,0c0,0,0,0,0,0c0,0,0,0,0,0
		c0,0,0-0.1,0-0.1c0,0,0,0,0,0c0,0,0,0,0,0c0,0,0,0,0,0c0,0,0,0,0,0c0,0,0,0,0,0c0,0,0,0,0,0c0,0,0,0,0,0c0,0,0,0-0.1,0c0,0,0,0,0,0
		c0,0,0,0,0,0c0,0,0,0,0,0c0,0,0,0,0,0c0,0,0,0,0,0c0,0,0,0,0,0c0,0,0,0,0,0c0,0,0,0,0-0.1c0,0,0,0,0,0c0,0,0,0,0,0c0,0,0-0.1,0-0.1
		c0,0,0,0,0,0c0,0,0,0,0,0c0,0,0,0,0,0c0,0,0,0,0,0h0c0,0,0,0,0-0.1c0,0,0,0,0,0s0-0.1,0-0.1c0,0,0,0,0,0c0,0,0,0,0,0c0,0,0,0,0,0
		s0,0,0,0c0,0,0,0,0,0c0,0,0,0,0,0c0,0,0,0,0,0c0,0,0,0,0,0c0,0,0,0,0,0c0,0,0,0,0,0c0,0,0,0,0,0c0,0,0,0,0,0c0,0,0-0.1,0-0.1
		c0,0,0,0,0,0c0,0,0,0,0,0c0,0,0,0,0,0c0,0,0,0,0,0c0,0,0,0,0,0c0,0,0,0,0,0c0,0,0,0,0,0c0,0,0,0,0,0c0,0,0,0,0,0c0,0,0,0,0,0
		c0,0,0,0,0,0c0,0,0,0,0,0c0,0,0,0,0,0c0,0,0,0,0,0c0,0,0,0,0,0c0,0,0,0,0,0c0,0,0,0,0,0c0,0,0,0,0,0c0,0,0,0,0,0c0,0,0,0,0-0.1
		c0,0,0,0,0,0c0,0,0,0,0,0c0,0,0,0,0.1,0c0,0,0,0,0,0c0,0,0,0,0,0c0,0,0,0,0,0c0,0,0,0,0,0c0,0,0,0,0,0c0,0,0,0,0,0c0,0,0,0,0,0
		c0,0,0-0.1,0-0.1c0,0,0,0,0-0.1c0,0,0,0,0-0.1c0,0,0,0,0,0c0,0,0,0,0,0c0,0,0,0,0-0.1c0,0,0-0.1,0-0.1c0,0,0,0,0,0c0,0,0,0,0,0
		c0,0,0,0,0,0c0,0,0,0,0,0c0,0,0,0,0,0s0,0,0,0c0,0,0,0,0,0c0,0,0,0-0.1,0c0,0,0-0.1,0-0.1c0,0,0,0,0,0s0,0,0,0c0,0,0,0,0,0
		c0,0,0,0,0,0.1c0,0,0,0,0,0c0,0-0.1,0-0.1,0c0,0,0,0.1,0,0.1c0,0,0,0.1,0.1,0.1c0,0,0,0,0,0.1c0,0,0,0,0,0c0,0,0,0,0,0
		c0,0-0.1,0-0.1,0c0,0,0,0,0,0c0,0-0.1-0.1-0.1-0.1c0,0,0,0,0,0c0,0,0,0,0,0c0,0,0,0,0,0c0,0,0-0.1,0-0.1s0,0,0,0c0,0,0,0-0.1,0
		c0,0-0.1,0-0.1,0c0,0-0.1,0-0.2,0c0,0,0,0-0.1,0c0,0,0,0,0,0c0,0,0,0,0,0c0,0,0,0-0.1,0c0,0,0,0,0,0c0,0,0,0,0,0c0,0,0,0,0,0
		c0,0,0,0,0,0c0,0,0,0,0,0c0,0,0,0,0,0c0,0,0,0,0-0.1c0,0,0,0-0.1,0c0,0,0,0-0.1,0c0,0,0,0,0,0c0,0,0,0,0,0c0,0,0,0,0,0c0,0,0,0,0,0
		c0,0,0,0,0-0.1c0,0-0.1-0.1-0.1,0c0,0,0,0,0,0.1c0,0,0,0.1,0,0.1s0,0,0,0c0,0-0.1,0-0.1,0c0,0-0.1,0-0.1,0s0,0,0,0c0,0,0,0,0,0
		s0,0-0.1-0.1c0,0,0,0,0-0.1c0,0,0-0.1,0-0.1c0,0,0-0.1,0-0.1c0,0,0,0,0,0c0,0,0,0,0,0c0,0,0,0,0,0c0,0,0,0,0,0c0,0-0.1,0-0.1,0
		c0,0,0,0,0,0c0,0-0.1,0-0.1-0.1c0,0,0,0,0,0c0,0-0.1,0-0.1-0.1c0,0-0.1-0.1-0.1-0.1c0,0,0,0,0,0c0,0,0,0,0,0c0,0,0,0,0-0.1
		c0,0,0,0-0.1,0c0,0-0.1,0-0.2,0c0,0-0.1,0-0.1,0c0,0-0.1,0-0.1,0s-0.1,0-0.1,0c0,0,0,0-0.1,0c0,0-0.1,0-0.1-0.1c0,0,0,0-0.1,0
		c0,0,0,0,0,0c0,0-0.1,0-0.1,0c0,0-0.1,0-0.1,0c0,0,0,0,0,0s-0.3-0.1-0.3-0.1c0,0,0,0-0.1,0c0,0,0,0,0,0c0,0,0-0.1,0-0.1
		c0,0,0,0-0.1-0.1c0-0.1,0,0-0.1,0c0,0,0,0,0,0c0,0,0,0-0.1,0c0,0-0.1,0-0.1,0c0,0-0.1-0.1-0.1-0.1c0,0-0.1,0-0.1,0c0,0-0.1,0-0.1,0
		c0,0,0,0-0.1,0c0,0,0,0,0,0c0,0,0,0,0,0c0,0,0,0-0.1,0c-0.1,0-0.1,0-0.1,0c0,0,0,0,0,0c0,0-0.1,0-0.1,0c0,0-0.1,0-0.1,0
		c0,0-0.1,0-0.1,0c0,0-0.1,0-0.1,0S5.3,17,5.3,16.9c0,0-0.1,0-0.1,0c0,0,0,0-0.1,0c0,0,0,0,0,0c0,0,0,0,0,0s-0.1,0-0.1,0
		c0,0-0.1,0-0.1,0c0,0,0,0,0,0c0,0,0,0-0.1,0c0,0,0,0-0.1,0c0,0,0,0-0.1,0c0,0,0,0-0.1,0c-0.1,0-0.1,0-0.1,0c0,0,0,0,0,0
		s-0.1,0-0.1-0.1c0,0-0.1,0-0.1,0c0,0-0.1,0-0.1-0.1c0,0-0.1,0-0.1,0s-0.1,0-0.1,0c0,0-0.1,0-0.2,0c0,0,0,0-0.1,0c0,0,0,0,0,0
		c0,0-0.1,0-0.1,0c0,0,0,0,0,0c0,0,0,0,0,0c0,0-0.1-0.1-0.1-0.1c0,0-0.1,0-0.1-0.1c0,0-0.1,0-0.1,0c0,0,0,0-0.1,0c0,0,0,0-0.1-0.1
		c0,0-0.1,0-0.1-0.1c0,0,0-0.1,0-0.1c0,0-0.1-0.1-0.1-0.1c0,0,0,0,0-0.1c0,0,0,0,0,0c0,0,0,0,0-0.1c0,0,0,0,0,0c0,0,0,0,0-0.1
		c0,0,0,0,0,0c0,0,0,0,0,0c0,0,0,0,0,0c0,0,0,0-0.1-0.1c0,0,0,0,0,0c0,0,0,0,0,0c0,0,0,0,0-0.1c0,0,0,0,0-0.1c0,0,0-0.1,0-0.1
		c0,0-0.1-0.1-0.1-0.1c0,0-0.1-0.1-0.1-0.1c0,0,0-0.1-0.1-0.1c-0.1,0,0,0,0,0c0,0,0,0,0,0c0,0,0,0-0.1,0c0,0,0,0,0,0c0,0,0,0,0,0
		c0,0-0.1,0-0.1-0.1c0,0,0,0,0,0c0,0,0,0,0,0c0,0,0,0,0,0c0,0,0,0,0,0c0,0,0,0,0,0c0,0,0,0,0,0c0,0,0-0.1-0.1-0.1c0,0,0,0,0,0
		s-0.1,0-0.1,0c0,0,0,0,0,0c0,0-0.1,0-0.1,0s0,0,0-0.1c0,0,0,0,0,0c0,0,0,0,0-0.1c0,0,0,0,0,0c0,0,0,0,0,0s0,0-0.1-0.1
		c0,0,0,0-0.1,0c0,0,0,0,0,0c0,0,0,0-0.1,0c0,0,0,0,0,0c0,0,0,0,0,0c0,0,0-0.1,0-0.1c0,0,0,0,0,0c0,0,0,0,0,0c0,0-0.1,0-0.1,0
		c0,0,0,0,0,0c0,0-0.1,0-0.1,0l0,0C2,9.5,4.2,5.9,7.4,3.6c0,0,0,0,0.1,0c0.1,0,0,0,0.1,0.1c0.1,0,0,0,0,0.1c0,0,0,0.1,0,0.1
		c0,0,0,0.1,0,0.1c0,0,0,0,0,0.1c0,0.1,0,0.1,0,0.1c0,0,0,0-0.1,0.1c-0.1,0,0,0-0.1,0.1c0,0,0,0,0.1,0c0,0,0.1,0,0.1,0
		c0,0,0.1,0,0.1-0.1c0,0,0.1,0,0.2,0c0.2,0,0,0,0.1,0c0,0,0,0,0.1,0c0,0,0,0.1,0,0.1c0,0,0,0,0.1,0c0,0,0.1,0,0.1,0c0,0,0,0,0.1,0.1
		c0,0,0,0,0.1,0c0,0,0.1,0,0.1,0c0,0,0.1,0,0.1,0c0,0,0,0,0.1,0.1c0.1,0,0,0,0.1,0.1c0,0,0,0,0.1,0c0,0,0,0,0.2,0
		c0.1,0,0,0.1,0.1,0.1c0,0,0,0,0.1,0c0.1,0,0,0,0.1,0.2c0.1,0,0,0,0.1,0c0.1,0,0.1,0,0.1,0c0.1,0,0.1,0,0.1,0c0.1,0,0,0,0,0.1
		c0,0,0.1,0,0.2,0c0.1,0,0.1,0,0.1,0c0,0,0.1,0,0.1,0c0,0,0,0,0,0c0,0,0,0,0,0c0.1,0.1,0,0.1,0,0.1c0,0,0,0.1-0.1,0.1
		c0,0,0,0.1,0,0.1c0,0,0,0.1,0,0.1c0,0,0,0,0,0.1c0,0,0,0.1,0,0.1c0,0,0,0,0,0.1c0,0,0,0,0,0.1c0,0.1,0,0,0,0.1c0,0,0,0,0,0
		c0,0,0,0.1,0,0.1c0,0,0,0,0.1,0c0,0,0,0,0.1,0.1c0,0,0,0,0,0c0,0,0,0,0,0c0,0,0,0-0.1,0.1c-0.1,0.1,0,0,0.1,0c0,0,0,0,0.1,0.1
		c0.1,0,0,0,0,0c0,0,0,0,0.1,0c0,0,0,0,0,0.1c0,0.1,0,0,0,0c0,0,0,0-0.1,0.1c0,0-0.1,0-0.1,0c0,0,0.1,0,0.2-0.1c0,0,0.1,0,0.1,0
		c0.1,0,0.1,0.2,0.1,0.1c0-0.1,0,0,0-0.1c0-0.1,0,0,0.1-0.1c0-0.1,0,0,0.1,0c0,0,0.1,0,0.1,0.1c0,0,0.1-0.1,0.1-0.1c0,0,0,0-0.1-0.1
		c0,0,0,0,0-0.1c0,0,0-0.1,0.1-0.1c0,0,0.1,0,0.1,0c0,0,0-0.1,0-0.1c0-0.1-0.1,0-0.1,0c0,0,0-0.1,0-0.2c0-0.1,0-0.1,0-0.1
		c0-0.1,0,0,0-0.1c0,0,0-0.1,0-0.1c0,0,0,0,0-0.1c0-0.1,0-0.1,0-0.1C11.1,5.1,11,5,11,5c0,0,0,0,0.1-0.1c0.1,0,0,0,0.1,0
		c0.1,0,0.1,0,0.1,0c0,0,0.1,0,0.1-0.1c0,0,0,0,0.1,0c0.1,0,0.1-0.1,0.1-0.1c0,0,0.1-0.1,0.2-0.1c0.1,0,0.1-0.1,0.1-0.1
		c0,0,0-0.1,0-0.1s0-0.1,0-0.1c0,0,0-0.1,0-0.1C12.1,4,12,4,12.1,4c0-0.1,0,0,0-0.1c0,0,0,0,0-0.1c0,0,0-0.1-0.1-0.1
		c0-0.1-0.1-0.1,0-0.1c0,0-0.1,0-0.2-0.1c-0.1-0.1-0.2-0.1-0.2-0.1c0,0,0.1-0.1,0.1-0.1c0,0,0-0.1,0-0.1s0.1,0,0.1-0.1
		c0.1-0.1,0-0.1,0.1-0.1c0,0,0.1,0,0.1,0c0,0,0-0.1,0-0.1c0,0,0-0.1,0-0.1c0,0,0,0,0-0.1c0,0,0-0.1-0.1-0.1c0,0,0,0,0-0.1
		c0,0,0,0,0-0.1c0,0,0-0.1,0.1-0.2c0.1-0.1,0,0,0,0c0,0,0-0.1,0-0.1c0-0.1-0.1,0,0-0.1c0-0.1,0,0,0.1-0.1c0,0,0.1,0,0.1-0.1
		c0,0,0.1,0,0.1,0c0.1,0,0.1,0,0.1,0.1c0,0,0,0,0.2,0c0.1,0,0,0,0.1,0c0,0,0,0,0,0.1c0,0,0,0,0.1,0c0.1,0,0,0,0.1,0c0,0,0,0,0.1,0
		c0,0,0,0,0.1,0.1c0,0,0,0,0.1,0c0.1,0,0,0,0.1,0c0,0,0.1,0,0.2,0c0,0,0,0,0.1,0c0.1,0,0,0.1,0.1,0.1c0,0,0,0.1,0,0.1
		c0,0,0,0.1,0,0.1c0,0,0.1,0,0.1,0c0,0,0,0.1,0.1,0.1c0,0,0,0,0,0.1c0,0,0,0.1,0,0.1c0,0,0.1,0,0.1,0c0,0,0,0,0.1,0c0,0,0.1,0,0.1,0
		c0,0,0,0.1,0,0.1c0.1,0,0.1,0,0.1,0c0,0,0,0,0.1,0c0,0,0,0-0.1,0.2c-0.1,0.1,0,0.1,0,0.1c0,0,0,0,0,0.1c0,0.1,0,0.1-0.1,0.1
		c0,0,0,0,0,0.1c0,0,0.1,0,0.1,0.2c0,0.1,0-0.1,0,0c0,0,0,0,0,0c0,0,0,0,0,0c0,0,0,0-0.1,0c0,0,0,0-0.1,0c0,0,0,0.1,0,0.1
		c0.1,0.1,0,0,0.1-0.1c0,0,0.2-0.1,0.2-0.1c0.1,0,0,0,0,0c0,0,0,0.1,0,0.1c0,0,0,0-0.1,0.1c0,0.1,0,0.1,0.1,0.1c0.1,0,0,0,0.1-0.1
		c0.1-0.1,0,0,0.1,0c0,0,0,0.1,0,0.1c0-0.1,0,0,0.1,0c0,0,0.1,0,0.1,0c0,0,0,0,0,0c0,0,0,0,0,0c0.1-0.1,0,0,0.1-0.1
		c0.1-0.1,0,0,0.1,0c0.1,0,0,0.1,0.1,0.1c0,0,0-0.1,0.1-0.2c0.1-0.1,0,0,0,0c0,0,0.1,0,0.1-0.1c0-0.1,0,0,0.1,0c0,0,0,0,0-0.1
		c0,0,0,0,0-0.1c0,0,0.1,0,0.1-0.1l0,0c0-0.1,0,0,0,0c0,0,0,0,0.1-0.2c0,0,0,0,0,0.1c0,0,0,0.1,0,0.1c0,0,0,0.1,0,0.1
		c0,0,0.1,0,0.1,0.1c0,0,0,0,0,0.1c0,0-0.1-0.1,0,0.1c0,0,0,0.1,0,0.1c0,0,0,0,0,0c0,0,0,0.1,0,0.2c0,0,0,0,0.1,0c0,0,0,0,0,0.1
		c0,0,0,0.1,0,0.1c0,0,0,0,0.1,0c0,0,0.1,0.1,0.1,0.1c0,0,0,0.1-0.1,0.1c0,0,0,0.1,0,0.1c0,0,0,0.1,0.1,0.1c0,0,0,0.1,0,0.1
		c0,0,0,0.1,0,0.1s0,0-0.1,0c-0.1,0,0,0.1,0,0.1s0,0.1,0.1,0c0,0,0,0.1,0.1,0.1c0,0,0,0.1,0.1,0.1c0,0,0,0.1,0.1,0.1c0,0,0,0,0,0
		c0.1,0,0,0,0,0c0,0,0,0,0,0c0,0,0,0.1,0,0.1s0,0.1,0,0.1c0,0,0,0,0.1,0c0,0,0.1,0,0.1,0c0,0,0,0.1,0,0.1s0.1,0,0.1,0
		c0,0,0,0,0.1-0.1c0,0,0.1,0,0.1,0.1c0,0,0,0,0,0.1c0,0,0,0,0.1,0c0.1,0,0.1,0,0.2,0c0.1,0,0,0.1,0,0.1c0,0,0.1,0.1,0.1,0.1
		c0,0-0.1,0-0.1,0c0,0-0.1,0-0.1,0c0,0-0.1,0-0.1,0c0,0-0.1,0-0.1,0c0,0-0.1,0-0.1,0c0,0-0.1,0-0.1,0c0,0-0.1,0-0.1,0.1
		c0,0-0.2,0-0.2,0c0,0,0,0,0,0.1c0,0,0.1,0,0.1,0c0,0,0.1-0.1,0.2-0.1c0.1,0,0.1-0.1,0.1-0.1c0,0,0.1,0,0.1,0c0,0,0.1-0.1,0.1-0.1
		c0,0,0.1,0,0.2,0c0,0,0.1,0,0.1,0.1c0,0.1,0,0.2,0,0.1c0,0,0-0.1,0-0.1c0,0,0-0.1,0.1-0.1c0,0,0.1,0,0.2,0c0,0,0.1,0.1,0.2,0.1
		c0,0,0,0.1,0,0.1c0,0,0,0.1,0,0.1c0,0.1-0.1,0.1-0.1,0.1c0,0,0,0,0,0.1c0,0,0,0.1,0.1,0.1c0,0,0,0.1-0.1,0.1c0,0-0.1,0.1-0.1,0.1
		c0,0-0.2,0.1-0.2,0.1c0,0-0.1,0-0.1,0c0,0-0.1,0-0.2,0c0,0-0.1,0-0.1,0c0,0-0.1,0.1-0.1,0.1c0,0-0.2,0.1-0.2,0.2c0,0-0.1,0-0.1,0
		c0,0-0.2,0.1-0.2,0.1c0,0-0.1,0-0.1,0c-0.1,0-0.2,0-0.2,0c0,0,0,0-0.1,0c0,0-0.2,0-0.2,0c0,0-0.1,0-0.1,0c0,0,0,0,0,0c0,0,0,0,0,0
		c0,0-0.1,0-0.2,0c-0.1,0-0.1,0-0.1,0c0,0-0.3,0-0.3,0c0,0-0.1,0-0.1,0c0,0-0.1,0.1-0.2,0.1c0,0-0.1,0.1-0.1,0.1
		c0,0-0.1,0.1-0.1,0.1c0,0-0.1,0.1-0.1,0.1c0,0-0.1,0-0.1,0c0,0-0.1,0-0.1,0S13.9,7,13.8,7c0,0-0.1,0.1-0.1,0.1c0,0-0.1,0.1-0.1,0.1
		c0,0,0,0-0.1,0.1c0,0,0,0.1-0.1,0.1c0,0-0.1,0.1-0.1,0.1c0,0-0.2,0.1-0.2,0.1s-0.1,0.2-0.1,0.1c0,0,0.1-0.1,0.2-0.2
		c0.2-0.1,0,0,0.1-0.1c0.1,0,0.1-0.1,0.2-0.2c0.1-0.1,0.1,0,0.1-0.1C13.9,7.1,14,7.1,14,7c0,0,0,0,0.1,0c0.1,0,0.1,0,0.1,0
		c0,0,0,0,0.1-0.1c0.1,0,0,0,0.1,0c0,0,0.2,0,0.2-0.1c0,0,0.1,0,0.1,0s0.1,0,0.2,0c0,0,0.1,0.1,0.1,0.1c0,0,0.1,0,0.1,0.1
		c0,0-0.1,0.1-0.1,0.1c0,0-0.1,0-0.1,0.1c0,0-0.3,0-0.3,0s0,0,0.1,0.1c0,0,0,0,0,0.1c0,0,0.2-0.1,0.2,0c0,0,0,0,0,0.1
		c0,0-0.1,0.1-0.1,0.1s0,0,0.1,0.1c0,0,0,0.1,0.1,0.1c0,0,0,0.1,0,0.1s0,0,0,0.1c0,0,0.1,0,0.1,0s0,0,0.1,0c0,0,0,0.1,0.1,0.1
		c0,0,0.1,0,0.1,0c0,0,0,0.1,0.1,0.1c0,0,0.1-0.1,0.2-0.1c0,0,0,0.1,0.1,0c0,0,0,0,0.1-0.1c0.1,0,0.1,0,0.1,0c0,0,0,0.1,0,0.1
		c0,0,0.1,0.1,0.1,0.1c0,0-0.1,0-0.1,0c0,0-0.1,0-0.1,0.1c0,0-0.2,0.1-0.2,0.1c-0.1,0-0.2,0-0.2,0.1c0,0-0.2,0-0.2,0.1
		c-0.1,0-0.1,0-0.1,0.1c0,0-0.1,0-0.1,0.1c0,0-0.1,0.1-0.2,0.1c0,0-0.1,0-0.2,0.1c-0.1,0-0.1,0-0.1,0c-0.1,0,0,0,0-0.1
		c0,0,0-0.1,0-0.1c0,0,0.1-0.1,0.1-0.1c0.1-0.1,0.1-0.1,0.2-0.1c0.1-0.1,0,0,0.1,0c0,0,0,0,0.2,0c0.2-0.1,0.1,0,0.1,0
		c0.1,0,0.1,0,0.1-0.1c0,0,0,0-0.1-0.1c0,0-0.1,0-0.1,0c0,0-0.1,0,0-0.1c0,0,0-0.1,0-0.1c0,0,0,0,0,0c0,0,0,0.1,0,0.1
		c0,0-0.1,0-0.1,0c0,0-0.1,0-0.1,0.1c0,0-0.1-0.1-0.1-0.1s0,0-0.1,0.1c0,0-0.1,0-0.2,0c0,0,0,0,0,0c0,0,0,0,0,0.1c0,0.1-0.1,0-0.1,0
		c0,0,0,0-0.1,0.1c0,0,0,0,0,0c-0.1,0-0.1,0-0.2,0.1c0,0-0.1,0-0.1,0c0,0-0.1,0-0.1,0c0,0,0,0.1-0.1,0.1c0,0-0.1,0-0.1,0
		c0,0,0,0-0.1,0c-0.1,0,0,0-0.1,0.1c-0.1,0.1-0.1,0.1-0.1,0.1C13.1,8.9,13,9,13,9c0,0.1,0,0-0.1,0.1c0,0.1,0,0,0,0.1
		c0,0.1,0,0,0,0.1c0,0,0,0.1,0,0.1c0,0-0.1,0.1-0.1,0.1c0,0-0.1,0-0.1,0s0,0.1-0.1,0.1c0,0,0,0-0.1,0c0,0-0.1,0-0.2,0
		c-0.1,0.1,0,0-0.1,0c0,0-0.1,0-0.1,0c0,0-0.1,0-0.1,0.1c0,0-0.1,0-0.1,0c0,0-0.1,0-0.1,0.1c0,0,0-0.1,0-0.1c0,0-0.1,0-0.1,0
		c0,0,0,0.1,0,0.1c0,0,0.1,0,0.1,0.1c0,0,0,0.1,0,0.1c0,0-0.1,0.1,0,0.1c0,0-0.1,0.1-0.2,0.2c0,0,0,0-0.1,0c0,0,0,0-0.1,0
		c0,0-0.1,0-0.1-0.1c0,0,0,0,0,0.1c0,0.1,0,0,0,0.1c0,0,0,0.1,0.1,0.1c0,0,0,0.1,0,0.1c0,0,0,0-0.1,0.1c0,0,0,0.1,0,0.1
		c0,0-0.1,0.1-0.1,0c-0.1,0,0-0.1,0-0.1c0,0,0,0-0.1-0.1c0-0.1,0,0,0-0.1c0-0.1,0.1-0.2,0-0.2c0,0,0,0.1-0.1,0.3c-0.1,0.2,0,0-0.1,0
		c-0.1,0,0,0,0,0.2c0,0,0,0.1,0,0.1s0,0,0,0.1c0,0-0.1,0-0.1,0c0,0,0,0,0.1,0.1c0.1,0,0,0,0.1,0c0.1,0,0.1,0,0.1,0.1
		c0,0,0,0.1,0,0.1c0,0.1,0,0.1,0,0.1s0,0,0,0.1c0,0,0,0,0.1,0.1c0,0,0,0,0,0.1c0,0-0.1,0.1-0.1,0.1c0,0,0,0-0.1,0c-0.1,0,0,0,0,0
		c0,0,0,0,0.1,0.1c0,0,0,0-0.1,0.1c0,0,0,0-0.1,0c0,0-0.1,0-0.1,0.1c0,0-0.1,0-0.2,0.1c-0.1,0.1,0,0.1-0.1,0.1c0,0-0.1,0-0.1,0
		c-0.1,0,0,0-0.1,0c-0.1,0-0.1,0.1-0.1,0.1c0,0,0,0-0.1,0.1c0,0,0,0-0.1,0.1c0,0-0.1,0.1-0.2,0.2c-0.1,0.1,0,0-0.1,0.1
		c0,0.1-0.1,0.1-0.1,0.2c0,0.1,0,0,0,0.1c0,0.1,0,0,0,0.1c-0.1,0.1,0,0.1,0,0.1c0,0.1,0,0.1,0,0.1c0,0.1,0.1,0.1,0.1,0.1
		c0,0,0.1,0.1,0.1,0.1c0,0,0,0,0,0.1c0,0.1,0,0,0,0.2c0,0.1,0,0,0,0.1c0,0.1,0,0.1,0,0.1c0,0,0,0.1,0.1,0.1c0,0,0,0,0,0.1
		c0,0,0,0,0,0.1c0,0,0,0,0,0.1c0,0.1,0,0.1,0,0.1c0,0,0,0.1,0,0.1s0,0.1-0.1,0.1c0,0,0,0.1,0,0.1c0,0,0,0-0.1,0.1c0,0-0.1,0-0.1,0
		c0,0-0.1,0-0.1,0c0,0,0-0.1,0-0.1c0,0,0,0-0.1,0c0,0-0.1,0-0.1,0c0,0-0.1-0.1-0.1-0.1c0,0,0,0,0-0.1c0,0,0-0.1,0-0.1
		c0,0,0-0.1,0-0.1s0-0.1-0.1-0.1c-0.1,0,0,0-0.1-0.1c0,0,0-0.1,0-0.1c0,0,0-0.1,0-0.2c0,0,0,0,0-0.1c0,0,0-0.1-0.1-0.1
		c0,0,0-0.1-0.1-0.1c0,0-0.1,0-0.1-0.1c0,0-0.1,0-0.1-0.1c0,0,0,0-0.1,0c0,0,0,0-0.1,0c0,0-0.1,0-0.1,0c0,0-0.1,0-0.2,0
		c0,0-0.1,0-0.1-0.1c0,0-0.1-0.1-0.1-0.1c0,0,0,0,0-0.1c0,0-0.1,0-0.1,0c0,0-0.1,0-0.2,0c0,0-0.1,0-0.1,0c0,0-0.1,0-0.1,0
		c0,0-0.1,0-0.1-0.1c0,0-0.1,0-0.1,0c0,0,0,0,0,0S7.8,13,7.8,13c-0.1,0,0,0-0.1,0c-0.1,0,0,0-0.1,0c0,0-0.1,0-0.1,0c0,0,0,0-0.1,0
		c0,0,0.1,0,0.1,0c0.1,0,0,0,0,0c0,0,0,0,0.1,0c0,0,0,0,0,0.1c0,0,0,0.1,0.1,0.1c0,0,0,0,0,0.1c0,0-0.1,0-0.1-0.1c0,0-0.1,0-0.1,0
		c0,0,0,0.1-0.1,0.1c-0.1,0,0,0,0,0s0,0,0,0c0,0,0,0-0.1,0c0,0-0.1,0-0.1,0c0,0,0,0,0-0.1c0,0,0,0-0.1,0c0,0-0.1,0-0.2,0
		c0,0-0.1,0-0.1,0c0,0,0,0-0.1,0c-0.1,0-0.1,0-0.1,0c0,0,0,0-0.1,0c0,0-0.1,0-0.2,0.1c0,0-0.1,0-0.1,0c-0.1,0-0.1,0-0.1,0
		c0,0,0,0,0,0.1c0,0.1-0.1,0-0.1,0.1c0,0,0,0,0,0.1c0,0-0.1,0-0.2,0.1c-0.1,0,0,0-0.1,0c0,0,0,0.1-0.1,0.1c0,0,0,0-0.1,0
		c0,0,0,0.1-0.1,0.1c0,0-0.1,0-0.1,0.1c0,0,0,0.1-0.1,0.1c0,0,0,0,0.1,0.1c0.1,0.1,0,0.1,0,0.2c0,0.1,0,0.1,0,0.1c0,0,0,0.1,0,0.1v0
		c0,0,0,0.1,0,0.1c0,0-0.1,0.1-0.1,0.1c0,0,0.1,0.2,0.1,0.2c0,0-0.1,0.1-0.1,0.1c0,0,0,0.1,0,0.1c0,0,0,0.1,0,0.1c0,0,0,0,0,0.1
		c0,0,0,0.1,0,0.2c0,0.1,0,0.1,0.1,0.1c0,0,0,0,0.1,0.2c0.1,0.2,0,0,0,0.1c0,0.1,0.1,0.1,0.1,0.1c0,0,0.1,0.1,0.1,0.1
		c0,0,0,0.1,0.1,0.1c0,0,0.1,0.1,0.1,0.1c0,0,0,0,0.1,0.1c0,0,0,0,0.1,0c0.1,0,0,0,0.1,0c0.1,0,0,0.1,0.1,0.1c0.1,0,0,0.1,0.1,0.1
		c0,0,0.1,0,0.1,0c0.1,0,0,0,0.1,0c0.1,0,0.1,0,0.1,0c0,0,0.1,0,0.2,0c0.1,0,0.1,0,0.1,0s0.1,0,0.2-0.1c0.1,0,0,0,0.1,0
		c0,0,0,0,0.1,0c0.1,0,0,0,0-0.1c0,0,0,0,0.1-0.1c0,0,0,0,0-0.1c0,0,0,0,0-0.1c0,0,0,0,0-0.2c0-0.2,0-0.1,0.1-0.1c0.1-0.1,0,0,0-0.1
		c0-0.1,0,0,0.1,0c0,0,0.1,0,0.2-0.1c0,0,0.1,0,0.1,0c0,0,0.2,0,0.2,0c0,0,0,0,0.1-0.1c0.1,0,0.1,0,0.1,0c0.1,0,0,0,0.1,0.1
		c0.1,0.1,0,0,0,0.1c0,0.1,0,0-0.1,0.1c-0.1,0.1,0,0.1-0.1,0.1c0,0,0,0.1,0,0.2c0,0.1,0,0,0,0.1c0,0,0,0,0,0.1c0,0,0,0.1,0,0.1
		c0,0,0,0.1,0,0.1c0,0,0-0.1,0-0.2c0,0,0,0-0.1,0c0,0,0,0.1,0,0.1c0,0,0,0,0,0.1c0,0,0,0-0.1,0c-0.1,0,0,0.1,0,0.1
		c0,0.1,0,0.1,0,0.2c0,0,0,0,0,0.1c0,0-0.1,0.1-0.1,0.1C8,17,8,17,8,17.1c0,0,0,0,0,0c0,0.1,0.1,0,0.1,0c0,0,0.1,0,0.1,0
		c0,0,0,0,0,0c0.1,0,0,0,0.1,0c0.1,0,0.1,0,0.1,0c0.1,0,0.1,0,0.2,0c0.1,0,0.1,0,0.1,0c0.1,0,0.2,0,0.2,0c0,0,0.1,0,0.1,0
		c0.1,0,0,0,0,0.1s0.2,0.1,0.2,0.1c0,0,0,0,0.1,0.1c0,0,0,0,0,0c0,0,0.1,0,0.1,0.1c0,0,0,0,0,0.1c0,0,0,0.1,0,0.1c0,0,0,0.1,0,0.2
		c0,0.1,0,0,0,0.1c0,0,0,0.1,0,0.1c0,0.1,0,0.1,0,0.1c0,0.1,0,0.1,0,0.1c0,0,0,0.1,0,0.1c0,0,0,0,0.1,0.1c0,0,0,0,0,0c0,0,0,0,0,0.1
		c0,0,0,0.1,0.1,0.1c0,0.1,0.1,0.1,0.1,0.1c0,0,0,0,0.1,0.1c0,0,0.1,0,0.1,0.1c0,0,0.1,0.1,0.2,0.1c0.1,0,0.1,0,0.1,0
		c0,0,0.1,0,0.1,0c0,0,0.1,0,0.1,0c0.1,0,0.1,0,0.1,0c0,0,0,0,0-0.1c0-0.1,0,0,0.1,0c0-0.1,0.1,0,0.1,0c0,0,0.1,0,0.1,0.1
		c0,0,0,0,0,0l0,0c0,0,0,0,0,0c0,0,0,0,0,0c0,0,0-0.1,0.1-0.1c0,0,0,0,0.1,0c0,0,0,0,0,0c0,0,0-0.1,0-0.1c0-0.1,0,0,0,0
		c0,0,0,0,0-0.1c0,0,0,0,0.1,0c0.1,0,0,0,0.1,0c0.1-0.1,0,0,0,0c0,0,0,0,0.1,0c0,0,0,0,0,0c0,0,0,0,0,0c0,0,0,0,0.1,0c0,0,0,0,0,0
		c0,0,0,0,0.1-0.1c0,0,0,0,0.1,0c0,0,0,0,0.1,0c0,0,0,0,0,0c0,0,0,0,0,0c0,0,0,0,0,0s0,0,0,0c0,0,0,0,0,0.1c0,0,0,0-0.1,0
		c0,0,0,0,0,0v0c0,0,0,0,0,0c0,0,0.1,0.1,0,0.2c0,0.1,0,0,0,0.1c0,0,0.1,0.1,0.1,0.1c0,0,0,0,0.1,0c0,0,0,0,0-0.1c0-0.1,0,0,0-0.1
		c0,0-0.1,0-0.1-0.1c0,0,0,0,0-0.1c0,0,0,0,0.1,0c0,0,0.1,0,0.1,0c0,0,0,0,0,0c0,0,0-0.1,0-0.1c0,0,0,0,0.1,0c0,0,0,0,0,0.1
		c0,0,0,0,0,0c0,0,0,0,0.1,0s0.1,0,0.1,0c0,0,0,0,0,0s0,0,0,0.1c0,0,0,0,0,0c0,0,0,0,0,0c0,0,0,0,0.1,0c0.1,0,0,0,0.1,0
		c0.1,0,0,0,0.1,0c0,0,0,0,0.1,0c0,0,0,0,0.1,0c0,0,0,0,0.1,0c0,0,0.1,0,0.1,0c0,0,0.1,0,0.1,0s0,0,0-0.1c0.1-0.1,0,0,0.1,0
		c0,0,0,0,0.1,0c0,0,0.1,0,0.1,0c0,0,0.1,0,0.1,0c0,0,0,0-0.1,0c-0.1,0,0,0,0,0c0,0,0,0,0,0c0,0,0.1,0,0.1,0s0,0,0,0c0,0,0,0,0.1,0
		c0,0,0,0,0.1,0c0,0,0,0,0,0c0,0,0,0,0,0c0,0,0,0,0.1,0c0,0,0,0,0.1,0.1c0,0,0,0,0,0.1c0,0,0,0,0,0c0,0,0,0,0.1,0c0,0,0,0,0.1,0
		c0,0,0,0,0.1,0c0,0,0,0,0,0c0,0,0,0,0,0c0,0,0,0,0,0c0,0,0,0,0.1,0c0,0,0,0,0.1,0c0,0,0,0,0,0c0,0,0,0,0,0.1c0,0,0,0,0,0.1
		c0,0,0,0,0.1,0c0,0,0,0,0,0c0,0,0.1,0.1,0.1,0.1c0,0,0,0,0.1,0.1c0,0,0,0,0,0c0,0,0,0,0,0c0,0,0,0,0.1,0c0,0,0,0,0.1,0c0,0,0,0,0,0
		c0,0,0,0,0.1,0c0.1,0,0,0,0,0c0,0,0,0,0.1,0c0,0,0,0,0,0c0,0,0,0,0.1,0c0,0,0,0,0,0c0,0,0,0,0,0c0,0,0,0,0,0c0,0,0,0,0,0
		c0,0,0,0,0.1,0c0,0,0,0,0.1,0c0,0,0.1,0.1,0.1,0.1c0,0,0,0,0,0.1c0,0,0,0,0,0s0,0,0.1,0c0,0,0,0,0,0.1c0,0,0,0,0,0.1c0,0,0,0,0,0.1
		c0,0,0,0,0,0.1c0,0,0,0,0,0c0,0,0,0,0.1,0c0,0,0,0,0.1,0c0,0,0,0,0,0c0,0,0,0.1,0,0.1c0,0.1,0,0,0,0c0,0,0,0,0,0.1c0,0,0,0,0,0
		c0,0,0,0-0.1,0c-0.1,0,0,0,0,0c0,0,0,0,0,0c0,0,0,0,0,0.1c0,0,0,0,0,0c0,0,0,0,0,0c0,0,0,0,0-0.1c0,0,0,0,0,0c0,0,0,0,0.1-0.1
		c0,0,0,0,0.1,0c0.1,0,0.1,0,0.1,0c0,0,0,0,0.1,0c0,0,0.1,0,0.1,0c0,0,0,0,0,0c0,0,0,0,0,0.1c0,0,0,0,0,0c0,0,0,0,0,0s-0.1,0-0.1,0
		c0,0,0,0-0.1,0c-0.1,0,0,0,0,0c0,0-0.1,0-0.1,0c0,0,0,0,0,0c0,0,0.1,0,0.1,0s0,0,0.1,0c0,0,0,0.1,0,0.1s0,0,0,0c0,0,0,0,0,0
		c0,0,0,0,0,0c0,0,0,0,0,0c0,0,0,0,0.1-0.1c0,0,0,0,0-0.1c0,0,0,0,0,0c0,0,0,0,0.1,0c0,0,0,0,0,0c0,0,0,0,0,0c0,0,0,0,0,0
		c0,0,0,0,0,0c0,0,0,0,0.1,0c0,0,0,0,0.1,0c0,0,0,0,0.1,0c0,0,0,0,0,0c0,0,0,0,0.1,0c0,0,0,0,0.1,0c0,0,0,0,0.1,0.1c0,0,0,0,0,0.1
		c0,0,0,0.1,0,0s0,0,0,0c0,0,0,0,0,0c0,0,0,0,0.1,0c0,0,0,0,0,0c0,0,0,0,0.1,0c0,0,0,0,0.1,0c0,0,0,0,0.1,0c0,0,0.1,0,0.1,0
		c0,0,0,0,0.1,0c0,0,0,0,0.1,0c0,0,0,0,0.1,0c0,0,0.1,0,0.1,0c0,0,0,0,0,0c0,0,0.1,0,0.1,0c0,0,0.1,0,0.1,0c0,0,0,0,0.1,0
		c0,0,0,0,0.1,0.1c0,0,0,0,0.1,0c0,0,0,0,0.1,0c0,0,0,0.1,0.1,0.1c0,0,0,0,0.1,0.1c0,0,0,0,0,0s0.1,0,0.1,0c0,0,0,0,0,0
		c0,0,0.1,0,0.1,0c0,0,0,0,0.1,0.2c0,0,0,0,0,0v0c0,0,0,0,0,0c0,0,0,0,0,0c0,0,0,0,0,0.1c0,0,0,0.1,0,0.1c0,0,0,0.1,0,0.1
		c0,0,0,0,0,0C18.3,21.7,18.3,21.8,18.3,21.8C18.3,21.8,18.3,21.8,18.3,21.8z M15.7,17.2C15.7,17.2,15.7,17.3,15.7,17.2
		C15.7,17.3,15.7,17.3,15.7,17.2C15.7,17.3,15.7,17.2,15.7,17.2C15.7,17.2,15.7,17.2,15.7,17.2C15.7,17.2,15.7,17.2,15.7,17.2z
		 M15.7,17.5C15.7,17.5,15.7,17.4,15.7,17.5l0-0.1c0,0,0,0,0,0C15.8,17.4,15.8,17.5,15.7,17.5C15.8,17.5,15.8,17.5,15.7,17.5
		C15.8,17.5,15.7,17.5,15.7,17.5z M15.7,18.4C15.7,18.4,15.7,18.3,15.7,18.4C15.8,18.4,15.8,18.4,15.7,18.4z M15.8,18.9
		c0,0,0-0.1,0.1-0.1c0.1,0,0.1,0,0.1,0.1C16,19,16,19,15.8,18.9C15.8,19,15.8,19,15.8,18.9C15.7,19,15.8,18.9,15.8,18.9z M15.5,7.8
		C15.5,7.9,15.5,7.9,15.5,7.8C15.4,8,15.4,8,15.4,8c0,0-0.1,0-0.1,0c0,0-0.1,0-0.1,0c0,0-0.1,0-0.1,0c0,0,0-0.1,0-0.1
		C15.2,7.8,15.4,7.8,15.5,7.8C15.6,7.8,15.5,7.8,15.5,7.8z M15.4,6.9c0,0-0.1-0.1-0.1-0.1c0,0-0.1-0.1-0.2-0.1
		c-0.1,0-0.1-0.1-0.1-0.1c0,0,0.2,0,0.2,0c0.1,0,0.1,0,0.1,0c0,0,0.1,0,0.1,0c0,0,0.2,0.1,0.2,0.1c0,0,0,0.1,0,0.1s0,0-0.1,0
		c0,0-0.1,0-0.1,0C15.5,6.9,15.4,6.9,15.4,6.9z M15.8,7.9c0,0,0.1-0.2,0.2-0.2c0,0,0.1-0.1,0.1,0c0,0.1,0.1,0,0,0.1
		C16,7.9,16,7.9,15.9,8C15.8,8,15.9,8,15.8,7.9C15.8,8,15.7,8,15.8,7.9C15.7,7.9,15.7,7.9,15.8,7.9z M15.9,17.9c0.1,0,0.1,0.1,0,0.1
		C15.8,18,15.8,17.9,15.9,17.9z M15.9,18.1C15.9,18.1,15.8,18.1,15.9,18.1C15.9,18,15.9,18.1,15.9,18.1z M15.9,17.7c0,0,0,0,0-0.1
		c0,0,0,0,0.1,0C15.9,17.6,15.9,17.7,15.9,17.7C15.9,17.8,15.9,17.8,15.9,17.7z M16,8.1C15.9,8.1,15.9,8.1,16,8.1
		C16,8,16,7.9,16,7.9c0.1,0,0.1-0.1,0.1,0c0,0.1,0,0.1,0,0.1C16.1,8,16.1,8,16,8.1C16,8.1,16,8.1,16,8.1z M15.1,7.9
		C15.1,7.9,15,7.8,15.1,7.9c-0.1-0.1-0.1-0.1-0.2-0.1c0,0,0-0.1,0.1-0.1c0,0,0,0,0,0.1c0,0,0,0,0,0.1C15.1,7.8,15.1,7.8,15.1,7.9z
		 M15.4,16.9C15.4,17,15.3,17,15.4,16.9C15.3,16.9,15.3,16.9,15.4,16.9C15.3,16.9,15.4,16.9,15.4,16.9z M15.3,16.7
		C15.3,16.7,15.3,16.7,15.3,16.7C15.2,16.7,15.2,16.7,15.3,16.7C15.2,16.7,15.2,16.7,15.3,16.7C15.2,16.6,15.3,16.7,15.3,16.7z
		 M14.8,16.8C14.8,16.9,14.7,16.8,14.8,16.8C14.7,16.8,14.7,16.8,14.8,16.8C14.7,16.8,14.8,16.8,14.8,16.8
		C14.8,16.8,14.8,16.8,14.8,16.8z M14.4,16.6c-0.1,0-0.1,0-0.1,0c0,0,0,0-0.1,0c-0.1,0-0.1,0-0.1,0c0,0-0.1-0.1-0.1-0.1
		c0,0-0.1-0.1,0-0.1c0.1,0,0.2,0,0.2,0c0.1,0,0.1,0,0.1,0C14.4,16.5,14.4,16.5,14.4,16.6C14.5,16.6,14.5,16.6,14.4,16.6z M12.9,16.6
		c-0.1,0-0.1-0.1-0.1-0.1c0,0,0,0-0.1,0c-0.1,0-0.1,0-0.1,0c-0.1,0-0.1,0-0.1,0c0,0-0.1,0-0.1,0c0,0-0.1,0-0.1,0c0,0-0.1,0-0.1,0
		c0,0,0,0-0.1-0.1c0,0-0.1-0.1,0-0.1c0,0,0.2-0.1,0.2,0c0,0,0.1,0,0.2,0.1c0,0,0.1,0,0.1,0c0.1,0,0.1,0,0.1,0c0,0-0.1,0-0.1-0.1
		c0,0-0.1,0,0-0.1c0,0,0-0.1,0-0.1c0,0-0.1,0-0.1,0c0,0-0.1-0.1,0-0.1c0,0,0.1-0.1,0.2-0.1c0.1,0,0.1,0.1,0.2,0.1c0.1,0,0.1,0,0.1,0
		c0,0,0,0,0.1,0c0.1,0,0.1,0,0.1,0c0.1,0,0.1,0,0.2,0c0,0.1,0,0.1,0.1,0.1c0,0,0,0,0,0c0,0,0,0,0.1,0c0.2,0.1,0.3,0.1,0.3,0.1
		c0,0.1,0,0.1-0.1,0.1c-0.1,0-0.1,0-0.2,0c0,0-0.1,0-0.2,0c0,0-0.1,0-0.1,0c0,0-0.1,0-0.1,0C12.9,16.5,12.9,16.5,12.9,16.6
		C12.9,16.6,12.9,16.7,12.9,16.6z M11.3,16c0,0-0.1,0-0.2,0c-0.1,0-0.2,0-0.1,0c0,0,0.1-0.1,0.1-0.1c0,0,0-0.1,0-0.1
		c0,0-0.1,0-0.1,0c0,0-0.2-0.1-0.2-0.1c0,0,0-0.1-0.1-0.1c-0.1,0-0.1,0-0.1,0c-0.1,0,0,0.1-0.1,0c-0.1-0.1-0.1-0.1-0.2-0.1
		c-0.1,0-0.2,0-0.3,0c-0.1,0-0.1,0-0.2,0c0,0-0.1,0-0.1,0c0-0.1,0-0.1,0-0.1c0,0-0.1,0-0.1,0c-0.1,0-0.1,0-0.1,0.1
		c0,0.1-0.1,0.1-0.1,0.1c-0.1,0-0.2,0-0.2,0c0,0.1-0.1,0.1-0.1,0.1c0,0-0.1-0.2,0-0.2c0,0,0,0,0.1-0.1c0.1,0,0.1-0.1,0.1-0.1
		c0,0,0,0,0.1,0c0.1,0,0.1,0,0.1,0c0,0,0.1,0,0.1,0c0,0,0,0,0.1,0c0.1,0,0,0,0.1,0c0.1,0,0.1,0,0.2,0c0,0,0.1,0,0.2,0
		c0.1,0,0.1,0,0.2,0c0.1,0,0.1,0,0.1,0.1c0,0,0,0.1,0.1,0.1c0,0,0.1,0,0.1,0c0,0,0.1,0,0.1,0c0.1,0.1,0.1,0,0.1,0.1c0,0,0.1,0,0.1,0
		c0,0,0.1,0,0.1,0.1c0.1,0,0.1,0,0.1,0.1c0.1,0,0.1,0,0.1,0.1c0,0,0,0,0.1,0c0.1,0,0.1,0,0.1,0c0,0,0.1,0,0.1,0c0,0,0,0.1,0,0.1
		c0,0,0,0,0.1,0c0.1,0,0.1,0,0.1,0c0,0,0,0,0.1,0.1c0,0,0.1,0,0,0c0,0.1-0.1,0.1-0.1,0.1c0,0-0.1,0-0.1,0s-0.1,0.1-0.1,0.1
		c0,0-0.1-0.1-0.1-0.1C11.5,16,11.4,16,11.3,16z M11.5,16.6c-0.1,0-0.1,0-0.2,0c0,0,0,0-0.1,0c-0.1,0,0,0.1-0.1,0
		c-0.1,0-0.1,0-0.1-0.1c0,0-0.1-0.1-0.1-0.1c0,0,0.1-0.1,0.2-0.1c0.1,0,0.1,0,0.2,0C11.3,16.5,11.3,16.4,11.5,16.6
		C11.5,16.6,11.5,16.5,11.5,16.6z M9.6,15.5C9.6,15.6,9.6,15.6,9.6,15.5c-0.2,0-0.1,0-0.2,0c0,0,0-0.1,0-0.1
		C9.6,15.4,9.6,15.5,9.6,15.5z M11,14.1c0.1,0,0.1,0,0.1,0c0,0,0,0,0,0.1c0,0,0,0.1,0,0.1c0,0-0.1,0.1-0.1,0.1c0,0,0,0,0-0.1
		C11.1,14.2,11,14.2,11,14.1C11,14.1,10.9,14.1,11,14.1z M11,14.8C11,14.8,11,14.8,11,14.8C10.9,14.9,10.9,14.9,11,14.8
		C10.9,14.8,11,14.8,11,14.8z M10.9,14.8C10.9,14.8,10.9,14.8,10.9,14.8c-0.1,0-0.1,0-0.1-0.1c-0.1,0,0,0,0-0.1c0,0,0-0.1,0-0.1
		c0,0,0,0,0,0c0,0,0,0.1,0.1,0.1C11,14.7,11,14.7,10.9,14.8z M10.7,14.1c0,0-0.1,0.1-0.1,0C10.6,14.1,10.6,14.1,10.7,14.1
		C10.7,14,10.7,14,10.7,14.1c0.1-0.1,0.1,0,0.1,0C10.8,14.1,10.8,14.1,10.7,14.1z M11.4,14.6C11.3,14.6,11.3,14.5,11.4,14.6
		c-0.1-0.1-0.1-0.1-0.1-0.1c0-0.1,0.1,0,0.1,0c0,0,0,0,0.1,0.1C11.4,14.5,11.4,14.5,11.4,14.6C11.4,14.6,11.4,14.6,11.4,14.6z
		 M11.5,15C11.5,15,11.4,15,11.5,15C11.4,15,11.4,15,11.5,15C11.4,14.9,11.5,14.9,11.5,15z M11.6,14.8
		C11.6,14.8,11.6,14.8,11.6,14.8C11.5,14.8,11.6,14.8,11.6,14.8C11.6,14.7,11.6,14.7,11.6,14.8C11.5,14.7,11.5,14.7,11.6,14.8
		C11.6,14.6,11.6,14.7,11.6,14.8C11.6,14.7,11.6,14.7,11.6,14.8z M11.6,15C11.6,14.9,11.7,15,11.6,15c0.1,0,0.1,0.1,0.1,0.1
		c0,0,0,0.1,0,0.1c0,0,0,0-0.1-0.1C11.6,15,11.7,15,11.6,15C11.6,15,11.6,15,11.6,15z M11.9,15.2C12.1,15.2,12,15.3,11.9,15.2
		c0.1,0.1,0.1,0.2,0,0.2c-0.1,0,0,0,0,0C12,15.3,12,15.3,11.9,15.2C12,15.2,11.9,15.2,11.9,15.2z M12.3,15.7
		C12.3,15.7,12.3,15.7,12.3,15.7c0,0.1-0.1,0.1-0.1,0.1c0,0-0.1,0-0.1,0c0,0,0-0.1,0-0.1C12.2,15.6,12.3,15.7,12.3,15.7z M12.3,15.3
		C12.3,15.3,12.4,15.3,12.3,15.3C12.4,15.4,12.4,15.4,12.3,15.3C12.4,15.4,12.3,15.4,12.3,15.3C12.3,15.3,12.3,15.3,12.3,15.3z
		 M21.6,2.2C21.6,2.3,21.5,2.2,21.6,2.2C21.5,2.3,21.6,2.3,21.6,2.2c-0.1,0.1-0.1,0.1-0.2,0.1c0,0-0.1,0-0.1,0c0,0,0,0,0.1,0.1
		c0,0,0.1,0,0,0c0,0,0,0-0.1,0.1c0,0,0,0-0.1,0c0,0,0,0,0,0c0,0-0.1,0-0.1,0s0-0.1,0-0.1c0,0-0.1,0-0.1,0c0,0,0,0,0,0
		c0,0-0.1,0-0.1,0.1c0,0,0,0,0,0c0,0,0-0.1,0-0.1c0,0,0,0,0,0c0,0-0.1,0-0.1,0c0,0,0-0.1,0-0.1s-0.1,0-0.1,0c0,0-0.1,0-0.1,0
		c0,0,0,0,0-0.1c0,0,0,0,0,0c0,0,0-0.1,0-0.1c0,0,0-0.1,0-0.1c0,0-0.1,0.1-0.1,0.1c0,0,0,0,0,0c0,0,0,0,0,0c0,0,0-0.1,0,0
		c0,0,0,0,0,0.1c0,0-0.1,0-0.1,0c0,0,0,0,0,0c0,0-0.1,0-0.1,0c0,0-0.1,0-0.1,0c0,0,0,0,0,0c0,0,0,0-0.1,0c0,0,0,0,0,0.1c0,0,0,0,0,0
		c0,0,0,0,0,0c0,0,0,0,0,0c0,0,0-0.1,0-0.1c0,0,0,0,0,0c0,0,0,0,0,0c0,0,0,0,0,0c0,0,0,0,0,0c0,0,0,0,0,0c0,0,0,0,0,0c0,0,0,0,0,0
		c0,0,0,0,0,0c0,0,0,0,0,0c0,0,0,0,0,0c0,0,0,0,0,0c0,0,0,0,0,0c0,0,0,0,0,0c0,0,0,0,0,0c0,0,0,0,0,0c0,0,0,0,0,0c0,0,0,0,0,0
		c0,0,0,0,0,0c0,0,0,0,0,0c0,0,0,0,0,0c0,0,0,0,0,0c0,0,0,0,0,0c0,0,0,0,0,0c0,0,0,0,0,0c0,0,0,0,0,0s0,0,0,0c0,0,0,0,0,0
		c0,0,0,0,0,0c0,0,0.1,0,0,0c-0.1,0-0.1,0-0.1,0s0,0,0,0c0,0,0,0,0,0s0,0,0,0c0,0,0,0,0,0c0,0,0,0,0,0l0,0c0,0,0,0,0,0c0,0,0,0,0,0
		c0,0,0,0,0,0c0,0,0,0,0,0c0,0,0,0,0,0c0,0,0,0,0,0c0,0,0,0,0,0c0,0,0,0,0,0c0,0,0,0,0,0l0,0c0,0,0,0,0,0c0,0,0,0,0,0s0,0,0,0
		c0,0,0,0,0,0c0,0,0,0,0,0c0,0,0,0,0,0c0,0,0,0-0.1,0c0,0-0.1-0.1-0.1-0.1c0,0,0,0,0.1,0c0,0,0,0,0,0c0,0-0.1,0-0.1,0c0,0,0,0,0,0
		c0,0,0-0.1,0-0.1l0,0c0,0,0,0,0,0c0,0,0,0,0,0c0.8,0.2,1.5,0.4,2.2,0.7c0,0,0,0.1,0,0.1c0,0,0,0,0,0c0,0,0,0,0,0c0,0,0,0,0,0.1
		c0,0,0,0,0,0.1c0,0,0,0-0.1,0c0,0,0,0,0,0.1C21.6,2.2,21.7,2.1,21.6,2.2C21.6,2.2,21.6,2.2,21.6,2.2z M30.1,23
		c0-0.1-0.1-0.1-0.1-0.1c0,0,0,0-0.1-0.1c0,0-0.1-0.1-0.1-0.1c-0.1-0.2-0.3-0.4-0.3-0.4c0,0-0.1-0.1-0.1-0.1c0,0-0.1-0.2-0.1-0.2
		c0,0,0-0.1,0-0.2c0-0.1,0-0.2,0-0.2c0,0,0.1,0,0.1-0.1c0-0.1,0-0.1,0-0.2c0-0.1,0-0.1,0-0.1c0,0,0-0.1,0-0.1c0,0,0,0,0,0
		c0,0,0.1-0.1,0.1-0.1c0,0,0-0.2,0-0.2c0,0-0.1-0.2-0.1-0.2c0,0,0-0.1-0.1-0.1c0,0-0.1,0-0.1,0c0,0,0-0.1-0.1-0.1c0,0,0,0,0-0.1
		c0,0,0,0,0,0c0,0,0.1-0.1,0-0.1c0,0-0.1,0-0.2,0.1c0,0-0.1,0-0.1,0.1c0,0-0.1,0-0.1,0c-0.1,0-0.3,0-0.3,0c0,0,0,0-0.1-0.1
		c0,0-0.1-0.1-0.1-0.1c0,0,0-0.1,0-0.1c0,0,0-0.1-0.1-0.1C28,20,28,19.9,28,19.9c0,0,0-0.1-0.1-0.1c-0.1,0-0.1,0-0.2,0
		c0,0-0.1,0-0.1,0c0,0,0,0,0,0s0-0.1-0.1,0c-0.1,0-0.2,0.1-0.2,0.1s0,0-0.1,0c0,0,0,0,0,0c0,0,0,0-0.1,0c0,0-0.1,0.1-0.1,0.1
		c0,0-0.1,0-0.1,0c0,0,0,0,0,0c0,0-0.1,0-0.1,0c0,0,0,0-0.1,0c-0.1,0-0.1,0-0.1,0c0,0,0,0-0.1,0.1c0,0-0.1,0.1-0.1,0.1
		c-0.1,0-0.1,0.1-0.1,0.1s0,0,0,0c0,0,0-0.1-0.1-0.1c-0.1,0-0.1,0-0.1,0c0,0,0,0-0.1,0c0,0-0.1,0-0.1,0c-0.1,0-0.2,0-0.3,0
		c0,0-0.1,0-0.2,0c-0.1,0-0.1,0-0.2,0c-0.1,0-0.1,0-0.1,0.1c0,0,0,0-0.1,0c0,0.1-0.1,0.1-0.2,0.1c0,0,0,0,0,0c0,0-0.1,0-0.1,0
		c0,0-0.1-0.1-0.1-0.1c0,0-0.1,0-0.1,0c0,0-0.1-0.1-0.1-0.1c0,0-0.1,0-0.1-0.1c0,0-0.1-0.1-0.1-0.1s-0.1,0-0.1,0
		c0,0-0.1-0.1-0.1-0.1c0,0-0.1-0.1-0.1-0.1c0-0.1-0.2-0.1-0.2-0.1s-0.1,0-0.1,0c0,0,0,0,0,0c0,0-0.1-0.1-0.1-0.1c0,0-0.1,0-0.1-0.1
		c0,0,0,0,0,0c0,0-0.1,0-0.1,0c0,0,0,0,0-0.1c0,0,0-0.1,0-0.1c0,0-0.1-0.1-0.1-0.1c0,0,0-0.1-0.1-0.1c0,0,0,0,0,0c0,0,0,0-0.1-0.1
		c-0.1-0.2-0.2-0.3-0.2-0.3s0,0-0.1,0c0,0-0.1-0.1-0.1-0.1c0,0-0.1-0.1-0.1-0.1c0,0,0,0,0,0c0,0-0.1-0.1-0.1-0.1c0,0,0,0,0,0
		c0,0,0-0.1,0-0.1c0,0,0,0,0-0.1c0,0,0,0-0.1,0c0,0-0.1,0-0.1,0c0,0,0,0-0.1,0c0,0-0.1,0-0.1,0c0,0,0-0.1,0-0.1c0,0-0.1,0-0.1,0
		s0,0,0,0c0,0,0,0,0,0c0,0,0,0,0,0c0,0,0-0.1,0-0.1c0,0,0,0,0-0.1c0,0,0,0,0-0.1c0,0,0,0,0,0c0,0,0-0.1,0-0.1s-0.1-0.1-0.1-0.1
		c0,0,0-0.1,0-0.1c0,0,0-0.1-0.1-0.1c0,0,0-0.1,0-0.1c0,0,0.1-0.1,0.1-0.1c0,0,0-0.1,0-0.1c0,0,0-0.1,0-0.1s0,0,0,0c0,0,0,0,0,0
		c0,0,0,0,0-0.1c0-0.1,0.1-0.2,0.1-0.2s0-0.1,0-0.1c0,0,0-0.2,0-0.2c0,0,0-0.1,0-0.1c0,0,0-0.1,0-0.1c0,0,0-0.1,0-0.1s0,0,0-0.1
		c0,0,0.1-0.1,0.1-0.1c0,0-0.1-0.2-0.1-0.2c0,0-0.1-0.1-0.1-0.1c0,0,0,0-0.1,0c0,0,0,0,0-0.1c0,0,0,0,0,0h0c0-0.1,0-0.1,0-0.1
		c0,0,0-0.1,0-0.1c0,0,0-0.1,0.1-0.1c0,0,0.1-0.2,0.1-0.2c0,0,0-0.1,0-0.1c0,0,0-0.1,0-0.1c0,0,0-0.1,0.1-0.1c0,0,0.1,0,0.1-0.1
		c0,0,0.1-0.1,0.1-0.1c0,0,0.1-0.1,0.1-0.1s0-0.1,0.1-0.1c0,0,0-0.1,0-0.1s0-0.1,0-0.1c0,0,0.1-0.1,0.1-0.1s0.1-0.1,0.1-0.1
		c0,0,0.1-0.1,0.1-0.1c0,0,0-0.1,0-0.1c0,0,0-0.1,0-0.1l0,0c0,0,0.1-0.1,0.1-0.1c0,0,0.3-0.1,0.3-0.1c0,0,0.1,0,0.1,0
		c0,0,0.1-0.1,0.1-0.1c0,0,0.1-0.1,0.1-0.1c0,0,0,0,0-0.1c0,0,0,0,0,0c0,0,0.1,0,0.1,0c0,0,0-0.1,0.1-0.1c0,0,0-0.1,0.1-0.1
		c0,0,0-0.1,0.1-0.1c0,0,0,0,0-0.1c0,0,0-0.1,0-0.1c0,0,0,0,0-0.1c0,0,0.1-0.4,0.1-0.4s0-0.1,0-0.1c0,0,0.1-0.1,0.1-0.1
		c0,0,0-0.1,0.1-0.1c0,0,0,0,0.1-0.1c0,0,0.1-0.1,0.1-0.1c0,0,0.1,0,0.1,0c0,0,0.1,0,0.1,0c0,0,0.1,0,0.1,0c0,0,0.1-0.1,0.1-0.1
		c0,0,0.1-0.1,0.1-0.1c0,0,0-0.1,0-0.1c0,0,0-0.1,0-0.1c0,0,0-0.1,0-0.1s0.1-0.1,0.1-0.2c0,0,0,0,0-0.1c0,0,0-0.1,0.1-0.1
		c0,0,0,0,0,0c0,0,0.1,0,0.1,0c0,0,0,0,0,0.1c0,0,0.1,0,0.1,0.1c0,0,0.1,0,0.1,0c0,0,0.1,0,0.1,0c0,0,0.1,0,0.1,0c0,0,0,0,0,0
		c0,0,0,0,0.1,0c0,0,0,0,0.1,0c0,0,0,0,0,0c0,0,0.1,0,0.1,0c0,0,0,0,0,0c0,0,0,0,0.1,0c0,0,0.1,0,0.1,0c0,0,0.1,0,0.1,0
		c0,0,0,0,0.1-0.1c0,0,0-0.1,0.1-0.1c0,0,0,0,0.1-0.1c0,0,0-0.1,0.1,0c0,0,0.2-0.1,0.2-0.1s0,0,0,0c0,0,0.1-0.1,0.1-0.1
		c0,0,0.1,0,0.1,0c0,0,0-0.1,0.1-0.1c0,0,0-0.1,0.1,0c0.1,0,0.3,0,0.3,0c0,0,0.1,0,0.1,0c0,0,0.1-0.1,0.1,0c0,0,0,0,0,0
		c0,0,0.1,0,0.1,0c0,0,0.1,0,0.1,0c0.1,0,0.2,0,0.2,0c0,0,0,0,0,0c0,0,0,0,0.1,0c0.1,0,0.2-0.1,0.2-0.1s0,0,0.1,0c0,0,0.1,0,0.1,0
		c0,0,0.1,0,0.1,0c0,0,0,0,0.1,0c0,0,0.1,0,0.1,0c0,0,0,0,0.1,0c0,0,0,0,0.1,0c0,0.1,0.1,0,0.1,0c0,0,0.1,0,0.1,0c0,0,0,0,0,0
		c0.1,0,0.2-0.1,0.2-0.1s0,0,0.1,0c0,0,0.1-0.1,0.1,0c0,0,0,0,0.1,0c0,0,0.1,0,0.1,0.1s0,0.1,0,0.1c0,0-0.1,0,0,0
		c0.1,0,0.1-0.1,0.1-0.1c0,0,0.1,0,0.1,0c0,0.1,0,0.1-0.1,0.1c0,0,0,0,0,0.1c0,0,0,0,0,0.1c0,0,0,0,0,0.1c0,0,0.1,0.2,0.1,0.2
		c0,0,0,0,0,0.1c0,0,0,0,0,0.1c0,0,0,0.1-0.1,0.1c0,0-0.1,0-0.1,0.1c0,0-0.1,0-0.1,0c0,0,0,0,0,0.1c0,0,0,0,0,0c0,0,0,0,0.1,0.1
		c0,0,0,0,0.1,0c0,0,0,0,0,0s0.1,0,0.1,0c0,0,0,0.1,0,0.1c0,0,0,0,0.1,0.1c0,0,0,0,0,0c0,0,0,0,0.1,0c0,0,0.1,0,0.1,0
		c0,0,0.1,0,0.1,0s0,0,0.1,0c0,0,0.1,0,0.1,0c0,0,0.2,0,0.2,0c0.1,0,0.1,0,0.2,0c0,0,0.2,0.1,0.2,0.1c0,0,0.1,0,0.1,0c0,0,0,0,0,0
		c0,0,0,0,0,0.1c0,0,0.1,0.1,0.1,0.1c0,0,0,0.1,0,0.1c0,0,0.1,0,0.1,0c0,0,0,0,0,0c0,0,0.1,0,0.1,0c0,0,0.1,0,0.2,0
		c0.3,1.2,0.4,2.3,0.4,3.5C31.7,18.6,31.1,20.9,30.1,23z"/>
	<path class="st0" d="M29.3,13.4C29.3,13.4,29.3,13.4,29.3,13.4c-0.1,0-0.1,0-0.1,0.1c0,0,0,0,0,0c0,0,0,0,0,0.1c0,0,0,0,0.1,0
		c0,0,0,0,0,0C29.3,13.5,29.3,13.5,29.3,13.4C29.4,13.4,29.4,13.4,29.3,13.4C29.4,13.4,29.4,13.4,29.3,13.4z"/>
	<path class="st0" d="M28.5,13.6C28.5,13.6,28.5,13.6,28.5,13.6c-0.1,0-0.1,0.1-0.1,0.1c0,0,0,0,0,0c0,0,0,0.1,0,0.1c0,0,0,0,0,0
		c0,0,0.1-0.1,0.1-0.1C28.5,13.7,28.5,13.7,28.5,13.6C28.5,13.7,28.5,13.7,28.5,13.6C28.6,13.6,28.5,13.6,28.5,13.6z"/>
	<path class="st0" d="M28.8,13.7C28.7,13.7,28.7,13.7,28.8,13.7c-0.1,0-0.1,0-0.1,0c0,0,0,0.1,0,0.1c0,0,0,0,0,0c0,0,0.1,0,0.1,0
		C28.8,13.8,28.8,13.8,28.8,13.7C28.8,13.8,28.8,13.8,28.8,13.7C28.8,13.7,28.8,13.7,28.8,13.7z"/>
</g>
</svg>
